<mxfile modified="2020-01-13T17:21:03.192Z" host="www.draw.io" agent="Mozilla/5.0 (Windows NT 10.0; Win64; x64) AppleWebKit/537.36 (KHTML, like Gecko) Chrome/79.0.3945.88 Safari/537.36" etag="Om6B9Xk63K-dYdC8_NSO" version="12.5.1" type="github" pages="4">
  <diagram id="vyYMURlmA4du_YMqddq6" name="Merchant">
    <mxGraphModel dx="1103" dy="719" grid="1" gridSize="10" guides="1" tooltips="1" connect="1" arrows="1" fold="1" page="1" pageScale="1" pageWidth="850" pageHeight="1100" math="0" shadow="0">
      <root>
        <mxCell id="0"/>
        <mxCell id="1" parent="0"/>
        <mxCell id="rx76BKU7CpPrEIFOv-aw-43" value="" style="rounded=0;whiteSpace=wrap;html=1;" parent="1" vertex="1">
          <mxGeometry x="320" y="20" width="320" height="940" as="geometry"/>
        </mxCell>
        <mxCell id="R_Dx4Kwps3VUw9FBxTHB-1" value="" style="ellipse;whiteSpace=wrap;html=1;" parent="1" vertex="1">
          <mxGeometry x="430" y="59.5" width="120" height="61" as="geometry"/>
        </mxCell>
        <mxCell id="R_Dx4Kwps3VUw9FBxTHB-5" value="" style="ellipse;whiteSpace=wrap;html=1;" parent="1" vertex="1">
          <mxGeometry x="430" y="137" width="120" height="61" as="geometry"/>
        </mxCell>
        <mxCell id="R_Dx4Kwps3VUw9FBxTHB-6" value="" style="ellipse;whiteSpace=wrap;html=1;" parent="1" vertex="1">
          <mxGeometry x="430" y="219.5" width="120" height="61" as="geometry"/>
        </mxCell>
        <mxCell id="R_Dx4Kwps3VUw9FBxTHB-4" value="" style="ellipse;whiteSpace=wrap;html=1;" parent="1" vertex="1">
          <mxGeometry x="430" y="295" width="120" height="61" as="geometry"/>
        </mxCell>
        <mxCell id="R_Dx4Kwps3VUw9FBxTHB-2" value="" style="ellipse;whiteSpace=wrap;html=1;" parent="1" vertex="1">
          <mxGeometry x="430" y="371" width="120" height="61" as="geometry"/>
        </mxCell>
        <mxCell id="rx76BKU7CpPrEIFOv-aw-17" value="register" style="text;html=1;strokeColor=none;fillColor=none;align=center;verticalAlign=middle;whiteSpace=wrap;rounded=0;" parent="1" vertex="1">
          <mxGeometry x="440" y="70" width="100" height="40" as="geometry"/>
        </mxCell>
        <mxCell id="rx76BKU7CpPrEIFOv-aw-18" value="view purchased orders" style="text;html=1;strokeColor=none;fillColor=none;align=center;verticalAlign=middle;whiteSpace=wrap;rounded=0;" parent="1" vertex="1">
          <mxGeometry x="440" y="230" width="100" height="40" as="geometry"/>
        </mxCell>
        <mxCell id="rx76BKU7CpPrEIFOv-aw-19" value="add product(s) details" style="text;html=1;strokeColor=none;fillColor=none;align=center;verticalAlign=middle;whiteSpace=wrap;rounded=0;" parent="1" vertex="1">
          <mxGeometry x="440" y="147.5" width="100" height="40" as="geometry"/>
        </mxCell>
        <mxCell id="rx76BKU7CpPrEIFOv-aw-20" value="receive payment&amp;nbsp; for product(s) from admin" style="text;html=1;strokeColor=none;fillColor=none;align=center;verticalAlign=middle;whiteSpace=wrap;rounded=0;" parent="1" vertex="1">
          <mxGeometry x="440" y="310" width="100" height="40" as="geometry"/>
        </mxCell>
        <mxCell id="rx76BKU7CpPrEIFOv-aw-38" value="update status of product Dispatch&amp;nbsp;" style="text;html=1;strokeColor=none;fillColor=none;align=center;verticalAlign=middle;whiteSpace=wrap;rounded=0;" parent="1" vertex="1">
          <mxGeometry x="440" y="381.5" width="100" height="40" as="geometry"/>
        </mxCell>
        <mxCell id="R_Dx4Kwps3VUw9FBxTHB-7" style="edgeStyle=orthogonalEdgeStyle;rounded=0;orthogonalLoop=1;jettySize=auto;html=1;exitX=1;exitY=0.3333333333333333;exitDx=0;exitDy=0;exitPerimeter=0;entryX=0;entryY=0.5;entryDx=0;entryDy=0;" parent="1" source="rx76BKU7CpPrEIFOv-aw-1" target="R_Dx4Kwps3VUw9FBxTHB-1" edge="1">
          <mxGeometry relative="1" as="geometry"/>
        </mxCell>
        <mxCell id="R_Dx4Kwps3VUw9FBxTHB-8" style="edgeStyle=orthogonalEdgeStyle;rounded=0;orthogonalLoop=1;jettySize=auto;html=1;exitX=1;exitY=0.3333333333333333;exitDx=0;exitDy=0;exitPerimeter=0;entryX=0;entryY=0.5;entryDx=0;entryDy=0;" parent="1" source="rx76BKU7CpPrEIFOv-aw-1" target="R_Dx4Kwps3VUw9FBxTHB-5" edge="1">
          <mxGeometry relative="1" as="geometry"/>
        </mxCell>
        <mxCell id="R_Dx4Kwps3VUw9FBxTHB-9" style="edgeStyle=orthogonalEdgeStyle;rounded=0;orthogonalLoop=1;jettySize=auto;html=1;exitX=1;exitY=0.3333333333333333;exitDx=0;exitDy=0;exitPerimeter=0;entryX=0;entryY=0.5;entryDx=0;entryDy=0;" parent="1" source="rx76BKU7CpPrEIFOv-aw-1" target="R_Dx4Kwps3VUw9FBxTHB-6" edge="1">
          <mxGeometry relative="1" as="geometry"/>
        </mxCell>
        <mxCell id="R_Dx4Kwps3VUw9FBxTHB-10" style="edgeStyle=orthogonalEdgeStyle;rounded=0;orthogonalLoop=1;jettySize=auto;html=1;exitX=1;exitY=0.3333333333333333;exitDx=0;exitDy=0;exitPerimeter=0;entryX=0;entryY=0.5;entryDx=0;entryDy=0;" parent="1" source="rx76BKU7CpPrEIFOv-aw-1" target="R_Dx4Kwps3VUw9FBxTHB-4" edge="1">
          <mxGeometry relative="1" as="geometry"/>
        </mxCell>
        <mxCell id="R_Dx4Kwps3VUw9FBxTHB-11" style="edgeStyle=orthogonalEdgeStyle;rounded=0;orthogonalLoop=1;jettySize=auto;html=1;exitX=1;exitY=0.3333333333333333;exitDx=0;exitDy=0;exitPerimeter=0;entryX=0;entryY=0.5;entryDx=0;entryDy=0;" parent="1" source="rx76BKU7CpPrEIFOv-aw-1" target="R_Dx4Kwps3VUw9FBxTHB-2" edge="1">
          <mxGeometry relative="1" as="geometry"/>
        </mxCell>
        <mxCell id="R_Dx4Kwps3VUw9FBxTHB-12" style="edgeStyle=orthogonalEdgeStyle;rounded=0;orthogonalLoop=1;jettySize=auto;html=1;exitX=1;exitY=0.3333333333333333;exitDx=0;exitDy=0;exitPerimeter=0;entryX=0;entryY=0.5;entryDx=0;entryDy=0;" parent="1" source="rx76BKU7CpPrEIFOv-aw-1" target="R_Dx4Kwps3VUw9FBxTHB-3" edge="1">
          <mxGeometry relative="1" as="geometry"/>
        </mxCell>
        <mxCell id="RPi867V5WlBaHyVsa6LL-31" style="edgeStyle=orthogonalEdgeStyle;rounded=0;orthogonalLoop=1;jettySize=auto;html=1;exitX=1;exitY=0.3333333333333333;exitDx=0;exitDy=0;exitPerimeter=0;entryX=0;entryY=0.5;entryDx=0;entryDy=0;" edge="1" parent="1" source="rx76BKU7CpPrEIFOv-aw-1" target="RPi867V5WlBaHyVsa6LL-12">
          <mxGeometry relative="1" as="geometry"/>
        </mxCell>
        <mxCell id="RPi867V5WlBaHyVsa6LL-32" style="edgeStyle=orthogonalEdgeStyle;rounded=0;orthogonalLoop=1;jettySize=auto;html=1;exitX=1;exitY=0.3333333333333333;exitDx=0;exitDy=0;exitPerimeter=0;entryX=0;entryY=0.5;entryDx=0;entryDy=0;" edge="1" parent="1" source="rx76BKU7CpPrEIFOv-aw-1" target="RPi867V5WlBaHyVsa6LL-15">
          <mxGeometry relative="1" as="geometry"/>
        </mxCell>
        <mxCell id="RPi867V5WlBaHyVsa6LL-33" style="edgeStyle=orthogonalEdgeStyle;rounded=0;orthogonalLoop=1;jettySize=auto;html=1;exitX=1;exitY=0.3333333333333333;exitDx=0;exitDy=0;exitPerimeter=0;entryX=0;entryY=0.5;entryDx=0;entryDy=0;" edge="1" parent="1" source="rx76BKU7CpPrEIFOv-aw-1" target="RPi867V5WlBaHyVsa6LL-27">
          <mxGeometry relative="1" as="geometry"/>
        </mxCell>
        <mxCell id="RPi867V5WlBaHyVsa6LL-34" style="edgeStyle=orthogonalEdgeStyle;rounded=0;orthogonalLoop=1;jettySize=auto;html=1;exitX=1;exitY=0.3333333333333333;exitDx=0;exitDy=0;exitPerimeter=0;entryX=0;entryY=0.5;entryDx=0;entryDy=0;" edge="1" parent="1" source="rx76BKU7CpPrEIFOv-aw-1" target="RPi867V5WlBaHyVsa6LL-18">
          <mxGeometry relative="1" as="geometry"/>
        </mxCell>
        <mxCell id="RPi867V5WlBaHyVsa6LL-35" style="edgeStyle=orthogonalEdgeStyle;rounded=0;orthogonalLoop=1;jettySize=auto;html=1;exitX=1;exitY=0.3333333333333333;exitDx=0;exitDy=0;exitPerimeter=0;entryX=0;entryY=0.5;entryDx=0;entryDy=0;" edge="1" parent="1" source="rx76BKU7CpPrEIFOv-aw-1" target="RPi867V5WlBaHyVsa6LL-21">
          <mxGeometry relative="1" as="geometry"/>
        </mxCell>
        <object label="Merchant" id="rx76BKU7CpPrEIFOv-aw-1">
          <mxCell style="shape=umlActor;verticalLabelPosition=bottom;labelBackgroundColor=#ffffff;verticalAlign=top;html=1;" parent="1" vertex="1">
            <mxGeometry x="210" y="452.5" width="40" height="90" as="geometry"/>
          </mxCell>
        </object>
        <mxCell id="R_Dx4Kwps3VUw9FBxTHB-13" style="edgeStyle=orthogonalEdgeStyle;rounded=0;orthogonalLoop=1;jettySize=auto;html=1;exitX=0;exitY=0.3333333333333333;exitDx=0;exitDy=0;exitPerimeter=0;entryX=1;entryY=0.5;entryDx=0;entryDy=0;" parent="1" source="rx76BKU7CpPrEIFOv-aw-35" target="R_Dx4Kwps3VUw9FBxTHB-4" edge="1">
          <mxGeometry relative="1" as="geometry"/>
        </mxCell>
        <object label="Payment service" id="rx76BKU7CpPrEIFOv-aw-35">
          <mxCell style="shape=umlActor;verticalLabelPosition=bottom;labelBackgroundColor=#ffffff;verticalAlign=top;html=1;" parent="1" vertex="1">
            <mxGeometry x="770" y="295" width="40" height="90" as="geometry"/>
          </mxCell>
        </object>
        <mxCell id="rx76BKU7CpPrEIFOv-aw-44" value="System" style="text;html=1;strokeColor=none;fillColor=none;align=center;verticalAlign=middle;whiteSpace=wrap;rounded=0;" parent="1" vertex="1">
          <mxGeometry x="460" y="30" width="40" height="20" as="geometry"/>
        </mxCell>
        <mxCell id="RPi867V5WlBaHyVsa6LL-1" value="" style="group" vertex="1" connectable="0" parent="1">
          <mxGeometry x="430" y="452.5" width="120" height="61" as="geometry"/>
        </mxCell>
        <mxCell id="R_Dx4Kwps3VUw9FBxTHB-3" value="" style="ellipse;whiteSpace=wrap;html=1;" parent="RPi867V5WlBaHyVsa6LL-1" vertex="1">
          <mxGeometry width="120" height="61" as="geometry"/>
        </mxCell>
        <mxCell id="rx76BKU7CpPrEIFOv-aw-40" value="feedback" style="text;html=1;strokeColor=none;fillColor=none;align=center;verticalAlign=middle;whiteSpace=wrap;rounded=0;" parent="RPi867V5WlBaHyVsa6LL-1" vertex="1">
          <mxGeometry x="10" y="10.5" width="100" height="40" as="geometry"/>
        </mxCell>
        <mxCell id="RPi867V5WlBaHyVsa6LL-11" value="" style="group" vertex="1" connectable="0" parent="1">
          <mxGeometry x="430" y="530" width="120" height="61" as="geometry"/>
        </mxCell>
        <mxCell id="RPi867V5WlBaHyVsa6LL-12" value="" style="ellipse;whiteSpace=wrap;html=1;" vertex="1" parent="RPi867V5WlBaHyVsa6LL-11">
          <mxGeometry width="120" height="61" as="geometry"/>
        </mxCell>
        <mxCell id="RPi867V5WlBaHyVsa6LL-13" value="Login" style="text;html=1;strokeColor=none;fillColor=none;align=center;verticalAlign=middle;whiteSpace=wrap;rounded=0;" vertex="1" parent="RPi867V5WlBaHyVsa6LL-11">
          <mxGeometry x="10" y="10.5" width="100" height="40" as="geometry"/>
        </mxCell>
        <mxCell id="RPi867V5WlBaHyVsa6LL-14" value="" style="group" vertex="1" connectable="0" parent="1">
          <mxGeometry x="430" y="600" width="120" height="61" as="geometry"/>
        </mxCell>
        <mxCell id="RPi867V5WlBaHyVsa6LL-15" value="" style="ellipse;whiteSpace=wrap;html=1;" vertex="1" parent="RPi867V5WlBaHyVsa6LL-14">
          <mxGeometry width="120" height="61" as="geometry"/>
        </mxCell>
        <mxCell id="RPi867V5WlBaHyVsa6LL-16" value="View product(s) details" style="text;html=1;strokeColor=none;fillColor=none;align=center;verticalAlign=middle;whiteSpace=wrap;rounded=0;" vertex="1" parent="RPi867V5WlBaHyVsa6LL-14">
          <mxGeometry x="10" y="10.5" width="100" height="40" as="geometry"/>
        </mxCell>
        <mxCell id="RPi867V5WlBaHyVsa6LL-17" value="" style="group" vertex="1" connectable="0" parent="1">
          <mxGeometry x="430" y="760" width="120" height="61" as="geometry"/>
        </mxCell>
        <mxCell id="RPi867V5WlBaHyVsa6LL-18" value="" style="ellipse;whiteSpace=wrap;html=1;" vertex="1" parent="RPi867V5WlBaHyVsa6LL-17">
          <mxGeometry width="120" height="61" as="geometry"/>
        </mxCell>
        <mxCell id="RPi867V5WlBaHyVsa6LL-19" value="View status of product Delivery&amp;nbsp;" style="text;html=1;strokeColor=none;fillColor=none;align=center;verticalAlign=middle;whiteSpace=wrap;rounded=0;" vertex="1" parent="RPi867V5WlBaHyVsa6LL-17">
          <mxGeometry x="10" y="10.5" width="100" height="40" as="geometry"/>
        </mxCell>
        <mxCell id="RPi867V5WlBaHyVsa6LL-20" value="" style="group" vertex="1" connectable="0" parent="1">
          <mxGeometry x="430" y="840" width="120" height="61" as="geometry"/>
        </mxCell>
        <mxCell id="RPi867V5WlBaHyVsa6LL-21" value="" style="ellipse;whiteSpace=wrap;html=1;" vertex="1" parent="RPi867V5WlBaHyVsa6LL-20">
          <mxGeometry width="120" height="61" as="geometry"/>
        </mxCell>
        <mxCell id="RPi867V5WlBaHyVsa6LL-22" value="Send warehouse details to delivery&amp;nbsp;" style="text;html=1;strokeColor=none;fillColor=none;align=center;verticalAlign=middle;whiteSpace=wrap;rounded=0;" vertex="1" parent="RPi867V5WlBaHyVsa6LL-20">
          <mxGeometry x="10" y="10.5" width="100" height="40" as="geometry"/>
        </mxCell>
        <mxCell id="RPi867V5WlBaHyVsa6LL-23" value="" style="group" vertex="1" connectable="0" parent="1">
          <mxGeometry x="410" y="710" width="140" height="61" as="geometry"/>
        </mxCell>
        <mxCell id="RPi867V5WlBaHyVsa6LL-26" value="" style="group" vertex="1" connectable="0" parent="RPi867V5WlBaHyVsa6LL-23">
          <mxGeometry x="20" y="-30" width="120" height="61" as="geometry"/>
        </mxCell>
        <mxCell id="RPi867V5WlBaHyVsa6LL-27" value="" style="ellipse;whiteSpace=wrap;html=1;" vertex="1" parent="RPi867V5WlBaHyVsa6LL-26">
          <mxGeometry width="120" height="61" as="geometry"/>
        </mxCell>
        <mxCell id="RPi867V5WlBaHyVsa6LL-28" value="Update product(s) details" style="text;html=1;strokeColor=none;fillColor=none;align=center;verticalAlign=middle;whiteSpace=wrap;rounded=0;" vertex="1" parent="RPi867V5WlBaHyVsa6LL-26">
          <mxGeometry x="10" y="10.5" width="100" height="40" as="geometry"/>
        </mxCell>
        <mxCell id="RPi867V5WlBaHyVsa6LL-36" value="&amp;lt;&amp;lt;M&amp;gt;&amp;gt;" style="text;html=1;resizable=0;autosize=1;align=center;verticalAlign=middle;points=[];fillColor=none;strokeColor=none;rounded=0;" vertex="1" parent="1">
          <mxGeometry x="345" y="66.11000000000001" width="50" height="20" as="geometry"/>
        </mxCell>
        <mxCell id="RPi867V5WlBaHyVsa6LL-37" value="&amp;lt;&amp;lt;M&amp;gt;&amp;gt;" style="text;html=1;resizable=0;autosize=1;align=center;verticalAlign=middle;points=[];fillColor=none;strokeColor=none;rounded=0;" vertex="1" parent="1">
          <mxGeometry x="340" y="137" width="50" height="20" as="geometry"/>
        </mxCell>
        <mxCell id="RPi867V5WlBaHyVsa6LL-38" value="&amp;lt;&amp;lt;Q&amp;gt;&amp;gt;" style="text;html=1;resizable=0;autosize=1;align=center;verticalAlign=middle;points=[];fillColor=none;strokeColor=none;rounded=0;" vertex="1" parent="1">
          <mxGeometry x="340" y="219.5" width="50" height="20" as="geometry"/>
        </mxCell>
        <mxCell id="RPi867V5WlBaHyVsa6LL-39" value="&amp;lt;&amp;lt;Q&amp;gt;&amp;gt;" style="text;html=1;resizable=0;autosize=1;align=center;verticalAlign=middle;points=[];fillColor=none;strokeColor=none;rounded=0;" vertex="1" parent="1">
          <mxGeometry x="340" y="295" width="50" height="20" as="geometry"/>
        </mxCell>
        <mxCell id="RPi867V5WlBaHyVsa6LL-41" value="&amp;lt;&amp;lt;M&amp;gt;&amp;gt;" style="text;html=1;resizable=0;autosize=1;align=center;verticalAlign=middle;points=[];fillColor=none;strokeColor=none;rounded=0;" vertex="1" parent="1">
          <mxGeometry x="341" y="371" width="50" height="20" as="geometry"/>
        </mxCell>
        <mxCell id="RPi867V5WlBaHyVsa6LL-42" value="&amp;lt;&amp;lt;M&amp;gt;&amp;gt;" style="text;html=1;resizable=0;autosize=1;align=center;verticalAlign=middle;points=[];fillColor=none;strokeColor=none;rounded=0;" vertex="1" parent="1">
          <mxGeometry x="590" y="305" width="50" height="20" as="geometry"/>
        </mxCell>
        <mxCell id="RPi867V5WlBaHyVsa6LL-46" value="&amp;lt;&amp;lt;M&amp;gt;&amp;gt;" style="text;html=1;resizable=0;autosize=1;align=center;verticalAlign=middle;points=[];fillColor=none;strokeColor=none;rounded=0;" vertex="1" parent="1">
          <mxGeometry x="340" y="460" width="50" height="20" as="geometry"/>
        </mxCell>
        <mxCell id="RPi867V5WlBaHyVsa6LL-47" value="&amp;lt;&amp;lt;Q&amp;gt;&amp;gt;" style="text;html=1;resizable=0;autosize=1;align=center;verticalAlign=middle;points=[];fillColor=none;strokeColor=none;rounded=0;" vertex="1" parent="1">
          <mxGeometry x="340" y="610" width="50" height="20" as="geometry"/>
        </mxCell>
        <mxCell id="RPi867V5WlBaHyVsa6LL-48" value="&amp;lt;&amp;lt;Q&amp;gt;&amp;gt;" style="text;html=1;resizable=0;autosize=1;align=center;verticalAlign=middle;points=[];fillColor=none;strokeColor=none;rounded=0;" vertex="1" parent="1">
          <mxGeometry x="340" y="771" width="50" height="20" as="geometry"/>
        </mxCell>
        <mxCell id="RPi867V5WlBaHyVsa6LL-49" value="&amp;lt;&amp;lt;Q&amp;gt;&amp;gt;" style="text;html=1;resizable=0;autosize=1;align=center;verticalAlign=middle;points=[];fillColor=none;strokeColor=none;rounded=0;" vertex="1" parent="1">
          <mxGeometry x="340" y="540" width="50" height="20" as="geometry"/>
        </mxCell>
        <mxCell id="RPi867V5WlBaHyVsa6LL-50" value="&amp;lt;&amp;lt;M&amp;gt;&amp;gt;" style="text;html=1;resizable=0;autosize=1;align=center;verticalAlign=middle;points=[];fillColor=none;strokeColor=none;rounded=0;" vertex="1" parent="1">
          <mxGeometry x="340" y="850" width="50" height="20" as="geometry"/>
        </mxCell>
        <mxCell id="RPi867V5WlBaHyVsa6LL-51" value="&amp;lt;&amp;lt;M&amp;gt;&amp;gt;" style="text;html=1;resizable=0;autosize=1;align=center;verticalAlign=middle;points=[];fillColor=none;strokeColor=none;rounded=0;" vertex="1" parent="1">
          <mxGeometry x="340" y="690" width="50" height="20" as="geometry"/>
        </mxCell>
      </root>
    </mxGraphModel>
  </diagram>
  <diagram id="L_HtEmfw_lmfF_Nbixu_" name="Admin">
    <mxGraphModel dx="908" dy="1692" grid="1" gridSize="10" guides="1" tooltips="1" connect="1" arrows="1" fold="1" page="1" pageScale="1" pageWidth="850" pageHeight="1100" math="0" shadow="0">
      <root>
        <mxCell id="fET1unnNT369VjIohE5C-0"/>
        <mxCell id="fET1unnNT369VjIohE5C-1" parent="fET1unnNT369VjIohE5C-0"/>
        <mxCell id="snrYU2X4Twt8o1SpUlFV-0" value="" style="rounded=0;whiteSpace=wrap;html=1;" parent="fET1unnNT369VjIohE5C-1" vertex="1">
          <mxGeometry x="150" y="-0.5" width="300" height="800.5" as="geometry"/>
        </mxCell>
        <mxCell id="gp9elRAcRuTLsHM61YKf-5" value="" style="ellipse;whiteSpace=wrap;html=1;" parent="fET1unnNT369VjIohE5C-1" vertex="1">
          <mxGeometry x="230" y="198.5" width="120" height="61" as="geometry"/>
        </mxCell>
        <mxCell id="gp9elRAcRuTLsHM61YKf-4" value="" style="ellipse;whiteSpace=wrap;html=1;" parent="fET1unnNT369VjIohE5C-1" vertex="1">
          <mxGeometry x="230" y="119.5" width="120" height="61" as="geometry"/>
        </mxCell>
        <mxCell id="gp9elRAcRuTLsHM61YKf-2" value="" style="ellipse;whiteSpace=wrap;html=1;" parent="fET1unnNT369VjIohE5C-1" vertex="1">
          <mxGeometry x="230" y="39" width="120" height="61" as="geometry"/>
        </mxCell>
        <mxCell id="gp9elRAcRuTLsHM61YKf-3" style="edgeStyle=orthogonalEdgeStyle;rounded=0;orthogonalLoop=1;jettySize=auto;html=1;exitX=1;exitY=0.3333333333333333;exitDx=0;exitDy=0;exitPerimeter=0;entryX=0;entryY=0.5;entryDx=0;entryDy=0;" parent="fET1unnNT369VjIohE5C-1" source="snrYU2X4Twt8o1SpUlFV-7" target="gp9elRAcRuTLsHM61YKf-2" edge="1">
          <mxGeometry relative="1" as="geometry"/>
        </mxCell>
        <mxCell id="gp9elRAcRuTLsHM61YKf-7" style="edgeStyle=orthogonalEdgeStyle;rounded=0;orthogonalLoop=1;jettySize=auto;html=1;exitX=1;exitY=0.3333333333333333;exitDx=0;exitDy=0;exitPerimeter=0;entryX=0;entryY=0.5;entryDx=0;entryDy=0;" parent="fET1unnNT369VjIohE5C-1" source="snrYU2X4Twt8o1SpUlFV-7" target="gp9elRAcRuTLsHM61YKf-4" edge="1">
          <mxGeometry relative="1" as="geometry"/>
        </mxCell>
        <mxCell id="gp9elRAcRuTLsHM61YKf-8" style="edgeStyle=orthogonalEdgeStyle;rounded=0;orthogonalLoop=1;jettySize=auto;html=1;exitX=1;exitY=0.3333333333333333;exitDx=0;exitDy=0;exitPerimeter=0;entryX=0;entryY=0.5;entryDx=0;entryDy=0;" parent="fET1unnNT369VjIohE5C-1" source="snrYU2X4Twt8o1SpUlFV-7" target="gp9elRAcRuTLsHM61YKf-5" edge="1">
          <mxGeometry relative="1" as="geometry"/>
        </mxCell>
        <mxCell id="gp9elRAcRuTLsHM61YKf-9" style="edgeStyle=orthogonalEdgeStyle;rounded=0;orthogonalLoop=1;jettySize=auto;html=1;exitX=1;exitY=0.3333333333333333;exitDx=0;exitDy=0;exitPerimeter=0;entryX=0;entryY=0.5;entryDx=0;entryDy=0;" parent="fET1unnNT369VjIohE5C-1" source="snrYU2X4Twt8o1SpUlFV-7" target="gp9elRAcRuTLsHM61YKf-6" edge="1">
          <mxGeometry relative="1" as="geometry"/>
        </mxCell>
        <mxCell id="NOWxdy9lQ0G8mByYehV_-22" style="edgeStyle=orthogonalEdgeStyle;rounded=0;orthogonalLoop=1;jettySize=auto;html=1;exitX=1;exitY=0.3333333333333333;exitDx=0;exitDy=0;exitPerimeter=0;entryX=0;entryY=0.5;entryDx=0;entryDy=0;" edge="1" parent="fET1unnNT369VjIohE5C-1" source="snrYU2X4Twt8o1SpUlFV-7" target="NOWxdy9lQ0G8mByYehV_-8">
          <mxGeometry relative="1" as="geometry"/>
        </mxCell>
        <mxCell id="NOWxdy9lQ0G8mByYehV_-23" style="edgeStyle=orthogonalEdgeStyle;rounded=0;orthogonalLoop=1;jettySize=auto;html=1;exitX=1;exitY=0.3333333333333333;exitDx=0;exitDy=0;exitPerimeter=0;entryX=0;entryY=0.5;entryDx=0;entryDy=0;" edge="1" parent="fET1unnNT369VjIohE5C-1" source="snrYU2X4Twt8o1SpUlFV-7" target="NOWxdy9lQ0G8mByYehV_-2">
          <mxGeometry relative="1" as="geometry"/>
        </mxCell>
        <mxCell id="NOWxdy9lQ0G8mByYehV_-24" style="edgeStyle=orthogonalEdgeStyle;rounded=0;orthogonalLoop=1;jettySize=auto;html=1;exitX=1;exitY=0.3333333333333333;exitDx=0;exitDy=0;exitPerimeter=0;entryX=0;entryY=0.5;entryDx=0;entryDy=0;" edge="1" parent="fET1unnNT369VjIohE5C-1" source="snrYU2X4Twt8o1SpUlFV-7" target="NOWxdy9lQ0G8mByYehV_-5">
          <mxGeometry relative="1" as="geometry"/>
        </mxCell>
        <mxCell id="NOWxdy9lQ0G8mByYehV_-25" style="edgeStyle=orthogonalEdgeStyle;rounded=0;orthogonalLoop=1;jettySize=auto;html=1;exitX=1;exitY=0.3333333333333333;exitDx=0;exitDy=0;exitPerimeter=0;entryX=0;entryY=0.5;entryDx=0;entryDy=0;" edge="1" parent="fET1unnNT369VjIohE5C-1" source="snrYU2X4Twt8o1SpUlFV-7" target="NOWxdy9lQ0G8mByYehV_-17">
          <mxGeometry relative="1" as="geometry"/>
        </mxCell>
        <mxCell id="NOWxdy9lQ0G8mByYehV_-26" style="edgeStyle=orthogonalEdgeStyle;rounded=0;orthogonalLoop=1;jettySize=auto;html=1;exitX=1;exitY=0.3333333333333333;exitDx=0;exitDy=0;exitPerimeter=0;entryX=0;entryY=0.5;entryDx=0;entryDy=0;" edge="1" parent="fET1unnNT369VjIohE5C-1" source="snrYU2X4Twt8o1SpUlFV-7" target="NOWxdy9lQ0G8mByYehV_-11">
          <mxGeometry relative="1" as="geometry"/>
        </mxCell>
        <object label="Admin" id="snrYU2X4Twt8o1SpUlFV-7">
          <mxCell style="shape=umlActor;verticalLabelPosition=bottom;labelBackgroundColor=#ffffff;verticalAlign=top;html=1;" parent="fET1unnNT369VjIohE5C-1" vertex="1">
            <mxGeometry x="70" y="368.18" width="40" height="90" as="geometry"/>
          </mxCell>
        </object>
        <mxCell id="snrYU2X4Twt8o1SpUlFV-12" value="login" style="text;html=1;strokeColor=none;fillColor=none;align=center;verticalAlign=middle;whiteSpace=wrap;rounded=0;" parent="fET1unnNT369VjIohE5C-1" vertex="1">
          <mxGeometry x="240" y="50" width="100" height="40" as="geometry"/>
        </mxCell>
        <mxCell id="snrYU2X4Twt8o1SpUlFV-13" value="verify&amp;nbsp; products" style="text;html=1;strokeColor=none;fillColor=none;align=center;verticalAlign=middle;whiteSpace=wrap;rounded=0;" parent="fET1unnNT369VjIohE5C-1" vertex="1">
          <mxGeometry x="240" y="210" width="100" height="40" as="geometry"/>
        </mxCell>
        <mxCell id="snrYU2X4Twt8o1SpUlFV-14" value="verify&amp;nbsp; merchants" style="text;html=1;strokeColor=none;fillColor=none;align=center;verticalAlign=middle;whiteSpace=wrap;rounded=0;" parent="fET1unnNT369VjIohE5C-1" vertex="1">
          <mxGeometry x="240" y="127.5" width="100" height="40" as="geometry"/>
        </mxCell>
        <mxCell id="snrYU2X4Twt8o1SpUlFV-22" value="System" style="text;html=1;strokeColor=none;fillColor=none;align=center;verticalAlign=middle;whiteSpace=wrap;rounded=0;" parent="fET1unnNT369VjIohE5C-1" vertex="1">
          <mxGeometry x="260" y="10" width="40" height="20" as="geometry"/>
        </mxCell>
        <mxCell id="NOWxdy9lQ0G8mByYehV_-0" value="" style="group" vertex="1" connectable="0" parent="fET1unnNT369VjIohE5C-1">
          <mxGeometry x="230" y="290" width="120" height="61" as="geometry"/>
        </mxCell>
        <mxCell id="gp9elRAcRuTLsHM61YKf-6" value="" style="ellipse;whiteSpace=wrap;html=1;" parent="NOWxdy9lQ0G8mByYehV_-0" vertex="1">
          <mxGeometry width="120" height="61" as="geometry"/>
        </mxCell>
        <mxCell id="snrYU2X4Twt8o1SpUlFV-15" value="view feedbacks/query" style="text;html=1;strokeColor=none;fillColor=none;align=center;verticalAlign=middle;whiteSpace=wrap;rounded=0;" parent="NOWxdy9lQ0G8mByYehV_-0" vertex="1">
          <mxGeometry x="10" y="10.5" width="100" height="40" as="geometry"/>
        </mxCell>
        <mxCell id="NOWxdy9lQ0G8mByYehV_-1" value="" style="group" vertex="1" connectable="0" parent="fET1unnNT369VjIohE5C-1">
          <mxGeometry x="230" y="440" width="120" height="61" as="geometry"/>
        </mxCell>
        <mxCell id="NOWxdy9lQ0G8mByYehV_-2" value="" style="ellipse;whiteSpace=wrap;html=1;" vertex="1" parent="NOWxdy9lQ0G8mByYehV_-1">
          <mxGeometry width="120" height="61" as="geometry"/>
        </mxCell>
        <mxCell id="NOWxdy9lQ0G8mByYehV_-3" value="Receive payment from users&amp;nbsp;" style="text;html=1;strokeColor=none;fillColor=none;align=center;verticalAlign=middle;whiteSpace=wrap;rounded=0;" vertex="1" parent="NOWxdy9lQ0G8mByYehV_-1">
          <mxGeometry x="10" y="10.5" width="100" height="40" as="geometry"/>
        </mxCell>
        <mxCell id="NOWxdy9lQ0G8mByYehV_-4" value="" style="group" vertex="1" connectable="0" parent="fET1unnNT369VjIohE5C-1">
          <mxGeometry x="230" y="521" width="120" height="61" as="geometry"/>
        </mxCell>
        <mxCell id="NOWxdy9lQ0G8mByYehV_-5" value="" style="ellipse;whiteSpace=wrap;html=1;" vertex="1" parent="NOWxdy9lQ0G8mByYehV_-4">
          <mxGeometry width="120" height="61" as="geometry"/>
        </mxCell>
        <mxCell id="NOWxdy9lQ0G8mByYehV_-6" value="Send payment to Merchant" style="text;html=1;strokeColor=none;fillColor=none;align=center;verticalAlign=middle;whiteSpace=wrap;rounded=0;" vertex="1" parent="NOWxdy9lQ0G8mByYehV_-4">
          <mxGeometry x="10" y="10.5" width="100" height="40" as="geometry"/>
        </mxCell>
        <mxCell id="NOWxdy9lQ0G8mByYehV_-7" value="" style="group" vertex="1" connectable="0" parent="fET1unnNT369VjIohE5C-1">
          <mxGeometry x="230" y="368.18" width="120" height="61" as="geometry"/>
        </mxCell>
        <mxCell id="NOWxdy9lQ0G8mByYehV_-8" value="" style="ellipse;whiteSpace=wrap;html=1;" vertex="1" parent="NOWxdy9lQ0G8mByYehV_-7">
          <mxGeometry width="120" height="61" as="geometry"/>
        </mxCell>
        <mxCell id="NOWxdy9lQ0G8mByYehV_-9" value="reply feedbacks/query" style="text;html=1;strokeColor=none;fillColor=none;align=center;verticalAlign=middle;whiteSpace=wrap;rounded=0;" vertex="1" parent="NOWxdy9lQ0G8mByYehV_-7">
          <mxGeometry x="10" y="10.5" width="100" height="40" as="geometry"/>
        </mxCell>
        <mxCell id="NOWxdy9lQ0G8mByYehV_-10" value="" style="group" vertex="1" connectable="0" parent="fET1unnNT369VjIohE5C-1">
          <mxGeometry x="230" y="690" width="120" height="61" as="geometry"/>
        </mxCell>
        <mxCell id="NOWxdy9lQ0G8mByYehV_-11" value="" style="ellipse;whiteSpace=wrap;html=1;" vertex="1" parent="NOWxdy9lQ0G8mByYehV_-10">
          <mxGeometry width="120" height="61" as="geometry"/>
        </mxCell>
        <mxCell id="NOWxdy9lQ0G8mByYehV_-12" value="Send payment to user(cancelled orders)" style="text;html=1;strokeColor=none;fillColor=none;align=center;verticalAlign=middle;whiteSpace=wrap;rounded=0;" vertex="1" parent="NOWxdy9lQ0G8mByYehV_-10">
          <mxGeometry x="10" y="10.5" width="100" height="40" as="geometry"/>
        </mxCell>
        <mxCell id="NOWxdy9lQ0G8mByYehV_-16" value="" style="group" vertex="1" connectable="0" parent="fET1unnNT369VjIohE5C-1">
          <mxGeometry x="230" y="610" width="120" height="61" as="geometry"/>
        </mxCell>
        <mxCell id="NOWxdy9lQ0G8mByYehV_-17" value="" style="ellipse;whiteSpace=wrap;html=1;" vertex="1" parent="NOWxdy9lQ0G8mByYehV_-16">
          <mxGeometry width="120" height="61" as="geometry"/>
        </mxCell>
        <mxCell id="NOWxdy9lQ0G8mByYehV_-18" value="Send payment to Delivery agent" style="text;html=1;strokeColor=none;fillColor=none;align=center;verticalAlign=middle;whiteSpace=wrap;rounded=0;" vertex="1" parent="NOWxdy9lQ0G8mByYehV_-16">
          <mxGeometry x="10" y="10.5" width="100" height="40" as="geometry"/>
        </mxCell>
        <mxCell id="pMPNLnOzKoK5FLp5hmpF-0" style="edgeStyle=orthogonalEdgeStyle;rounded=0;orthogonalLoop=1;jettySize=auto;html=1;exitX=0;exitY=0.3333333333333333;exitDx=0;exitDy=0;exitPerimeter=0;entryX=1;entryY=0.5;entryDx=0;entryDy=0;" edge="1" parent="fET1unnNT369VjIohE5C-1" source="6p2XTM8kYX1aDxKC6lxu-0" target="NOWxdy9lQ0G8mByYehV_-2">
          <mxGeometry relative="1" as="geometry"/>
        </mxCell>
        <object label="Payment service" id="6p2XTM8kYX1aDxKC6lxu-0">
          <mxCell style="shape=umlActor;verticalLabelPosition=bottom;labelBackgroundColor=#ffffff;verticalAlign=top;html=1;" vertex="1" parent="fET1unnNT369VjIohE5C-1">
            <mxGeometry x="520" y="540" width="40" height="90" as="geometry"/>
          </mxCell>
        </object>
        <mxCell id="6p2XTM8kYX1aDxKC6lxu-1" style="edgeStyle=orthogonalEdgeStyle;rounded=0;orthogonalLoop=1;jettySize=auto;html=1;exitX=1;exitY=0.5;exitDx=0;exitDy=0;entryX=0;entryY=0.3333333333333333;entryDx=0;entryDy=0;entryPerimeter=0;" edge="1" parent="fET1unnNT369VjIohE5C-1" source="NOWxdy9lQ0G8mByYehV_-5" target="6p2XTM8kYX1aDxKC6lxu-0">
          <mxGeometry relative="1" as="geometry"/>
        </mxCell>
        <mxCell id="iE1tBkb9C1tY7xXkzYAd-0" style="edgeStyle=orthogonalEdgeStyle;rounded=0;orthogonalLoop=1;jettySize=auto;html=1;exitX=1;exitY=0.5;exitDx=0;exitDy=0;entryX=0;entryY=0.3333333333333333;entryDx=0;entryDy=0;entryPerimeter=0;" edge="1" parent="fET1unnNT369VjIohE5C-1" source="NOWxdy9lQ0G8mByYehV_-17" target="6p2XTM8kYX1aDxKC6lxu-0">
          <mxGeometry relative="1" as="geometry"/>
        </mxCell>
        <mxCell id="f1h9BP5h1KwUJPdzLEmy-0" style="edgeStyle=orthogonalEdgeStyle;rounded=0;orthogonalLoop=1;jettySize=auto;html=1;exitX=1;exitY=0.5;exitDx=0;exitDy=0;entryX=0;entryY=0.3333333333333333;entryDx=0;entryDy=0;entryPerimeter=0;" edge="1" parent="fET1unnNT369VjIohE5C-1" source="NOWxdy9lQ0G8mByYehV_-11" target="6p2XTM8kYX1aDxKC6lxu-0">
          <mxGeometry relative="1" as="geometry"/>
        </mxCell>
        <mxCell id="kD4kqpQVk5RFCAJ8qSnS-0" value="&amp;lt;&amp;lt;Q&amp;gt;&amp;gt;" style="text;html=1;resizable=0;autosize=1;align=center;verticalAlign=middle;points=[];fillColor=none;strokeColor=none;rounded=0;" vertex="1" parent="fET1unnNT369VjIohE5C-1">
          <mxGeometry x="165" y="44.440000000000055" width="50" height="20" as="geometry"/>
        </mxCell>
        <mxCell id="kD4kqpQVk5RFCAJ8qSnS-1" value="&amp;lt;&amp;lt;M&amp;gt;&amp;gt;" style="text;html=1;resizable=0;autosize=1;align=center;verticalAlign=middle;points=[];fillColor=none;strokeColor=none;rounded=0;" vertex="1" parent="fET1unnNT369VjIohE5C-1">
          <mxGeometry x="165" y="119.50000000000006" width="50" height="20" as="geometry"/>
        </mxCell>
        <mxCell id="kD4kqpQVk5RFCAJ8qSnS-2" value="&amp;lt;&amp;lt;M&amp;gt;&amp;gt;" style="text;html=1;resizable=0;autosize=1;align=center;verticalAlign=middle;points=[];fillColor=none;strokeColor=none;rounded=0;" vertex="1" parent="fET1unnNT369VjIohE5C-1">
          <mxGeometry x="165" y="200.00000000000006" width="50" height="20" as="geometry"/>
        </mxCell>
        <mxCell id="kD4kqpQVk5RFCAJ8qSnS-3" value="&amp;lt;&amp;lt;M&amp;gt;&amp;gt;" style="text;html=1;resizable=0;autosize=1;align=center;verticalAlign=middle;points=[];fillColor=none;strokeColor=none;rounded=0;" vertex="1" parent="fET1unnNT369VjIohE5C-1">
          <mxGeometry x="165" y="370.00000000000006" width="50" height="20" as="geometry"/>
        </mxCell>
        <mxCell id="kD4kqpQVk5RFCAJ8qSnS-4" value="&amp;lt;&amp;lt;Q&amp;gt;&amp;gt;" style="text;html=1;resizable=0;autosize=1;align=center;verticalAlign=middle;points=[];fillColor=none;strokeColor=none;rounded=0;" vertex="1" parent="fET1unnNT369VjIohE5C-1">
          <mxGeometry x="165" y="300.00000000000006" width="50" height="20" as="geometry"/>
        </mxCell>
        <mxCell id="kD4kqpQVk5RFCAJ8qSnS-5" value="&amp;lt;&amp;lt;M&amp;gt;&amp;gt;" style="text;html=1;resizable=0;autosize=1;align=center;verticalAlign=middle;points=[];fillColor=none;strokeColor=none;rounded=0;" vertex="1" parent="fET1unnNT369VjIohE5C-1">
          <mxGeometry x="165" y="530" width="50" height="20" as="geometry"/>
        </mxCell>
        <mxCell id="kD4kqpQVk5RFCAJ8qSnS-6" value="&amp;lt;&amp;lt;Q&amp;gt;&amp;gt;" style="text;html=1;resizable=0;autosize=1;align=center;verticalAlign=middle;points=[];fillColor=none;strokeColor=none;rounded=0;" vertex="1" parent="fET1unnNT369VjIohE5C-1">
          <mxGeometry x="165" y="450.00000000000006" width="50" height="20" as="geometry"/>
        </mxCell>
        <mxCell id="kD4kqpQVk5RFCAJ8qSnS-7" value="&amp;lt;&amp;lt;Q&amp;gt;&amp;gt;" style="text;html=1;resizable=0;autosize=1;align=center;verticalAlign=middle;points=[];fillColor=none;strokeColor=none;rounded=0;" vertex="1" parent="fET1unnNT369VjIohE5C-1">
          <mxGeometry x="390" y="530" width="50" height="20" as="geometry"/>
        </mxCell>
        <mxCell id="kD4kqpQVk5RFCAJ8qSnS-8" value="&amp;lt;&amp;lt;M&amp;gt;&amp;gt;" style="text;html=1;resizable=0;autosize=1;align=center;verticalAlign=middle;points=[];fillColor=none;strokeColor=none;rounded=0;" vertex="1" parent="fET1unnNT369VjIohE5C-1">
          <mxGeometry x="390" y="450" width="50" height="20" as="geometry"/>
        </mxCell>
        <mxCell id="kD4kqpQVk5RFCAJ8qSnS-9" value="&amp;lt;&amp;lt;M&amp;gt;&amp;gt;" style="text;html=1;resizable=0;autosize=1;align=center;verticalAlign=middle;points=[];fillColor=none;strokeColor=none;rounded=0;" vertex="1" parent="fET1unnNT369VjIohE5C-1">
          <mxGeometry x="170" y="700" width="50" height="20" as="geometry"/>
        </mxCell>
        <mxCell id="kD4kqpQVk5RFCAJ8qSnS-10" value="&amp;lt;&amp;lt;M&amp;gt;&amp;gt;" style="text;html=1;resizable=0;autosize=1;align=center;verticalAlign=middle;points=[];fillColor=none;strokeColor=none;rounded=0;" vertex="1" parent="fET1unnNT369VjIohE5C-1">
          <mxGeometry x="170" y="620" width="50" height="20" as="geometry"/>
        </mxCell>
        <mxCell id="kD4kqpQVk5RFCAJ8qSnS-11" value="&amp;lt;&amp;lt;Q&amp;gt;&amp;gt;" style="text;html=1;resizable=0;autosize=1;align=center;verticalAlign=middle;points=[];fillColor=none;strokeColor=none;rounded=0;" vertex="1" parent="fET1unnNT369VjIohE5C-1">
          <mxGeometry x="386" y="620" width="50" height="20" as="geometry"/>
        </mxCell>
        <mxCell id="kD4kqpQVk5RFCAJ8qSnS-12" value="&amp;lt;&amp;lt;Q&amp;gt;&amp;gt;" style="text;html=1;resizable=0;autosize=1;align=center;verticalAlign=middle;points=[];fillColor=none;strokeColor=none;rounded=0;" vertex="1" parent="fET1unnNT369VjIohE5C-1">
          <mxGeometry x="386" y="700" width="50" height="20" as="geometry"/>
        </mxCell>
      </root>
    </mxGraphModel>
  </diagram>
  <diagram id="fRdNnsU_bC0b-UBTNCI7" name="Delivery agent">
    <mxGraphModel dx="772" dy="503" grid="1" gridSize="10" guides="1" tooltips="1" connect="1" arrows="1" fold="1" page="1" pageScale="1" pageWidth="827" pageHeight="1169" math="0" shadow="0">
      <root>
        <mxCell id="CztYsGBarheONfb3hWxK-0"/>
        <mxCell id="CztYsGBarheONfb3hWxK-1" parent="CztYsGBarheONfb3hWxK-0"/>
        <mxCell id="A0rY-jvUmG3pUJsESO20-0" value="&lt;span style=&quot;color: rgba(0 , 0 , 0 , 0) ; font-family: monospace ; font-size: 0px&quot;&gt;%3CmxGraphModel%3E%3Croot%3E%3CmxCell%20id%3D%220%22%2F%3E%3CmxCell%20id%3D%221%22%20parent%3D%220%22%2F%3E%3CmxCell%20id%3D%222%22%20value%3D%22%22%20style%3D%22rounded%3D0%3BwhiteSpace%3Dwrap%3Bhtml%3D1%3B%22%20vertex%3D%221%22%20parent%3D%221%22%3E%3CmxGeometry%20x%3D%22150%22%20y%3D%22-0.5%22%20width%3D%22300%22%20height%3D%22800.5%22%20as%3D%22geometry%22%2F%3E%3C%2FmxCell%3E%3CmxCell%20id%3D%223%22%20value%3D%22%22%20style%3D%22ellipse%3BwhiteSpace%3Dwrap%3Bhtml%3D1%3B%22%20vertex%3D%221%22%20parent%3D%221%22%3E%3CmxGeometry%20x%3D%22230%22%20y%3D%22198.5%22%20width%3D%22120%22%20height%3D%2261%22%20as%3D%22geometry%22%2F%3E%3C%2FmxCell%3E%3CmxCell%20id%3D%224%22%20value%3D%22%22%20style%3D%22ellipse%3BwhiteSpace%3Dwrap%3Bhtml%3D1%3B%22%20vertex%3D%221%22%20parent%3D%221%22%3E%3CmxGeometry%20x%3D%22230%22%20y%3D%22119.5%22%20width%3D%22120%22%20height%3D%2261%22%20as%3D%22geometry%22%2F%3E%3C%2FmxCell%3E%3CmxCell%20id%3D%225%22%20value%3D%22%22%20style%3D%22ellipse%3BwhiteSpace%3Dwrap%3Bhtml%3D1%3B%22%20vertex%3D%221%22%20parent%3D%221%22%3E%3CmxGeometry%20x%3D%22230%22%20y%3D%2239%22%20width%3D%22120%22%20height%3D%2261%22%20as%3D%22geometry%22%2F%3E%3C%2FmxCell%3E%3CmxCell%20id%3D%226%22%20style%3D%22edgeStyle%3DorthogonalEdgeStyle%3Brounded%3D0%3BorthogonalLoop%3D1%3BjettySize%3Dauto%3Bhtml%3D1%3BexitX%3D1%3BexitY%3D0.3333333333333333%3BexitDx%3D0%3BexitDy%3D0%3BexitPerimeter%3D0%3BentryX%3D0%3BentryY%3D0.5%3BentryDx%3D0%3BentryDy%3D0%3B%22%20edge%3D%221%22%20source%3D%2215%22%20target%3D%225%22%20parent%3D%221%22%3E%3CmxGeometry%20relative%3D%221%22%20as%3D%22geometry%22%2F%3E%3C%2FmxCell%3E%3CmxCell%20id%3D%227%22%20style%3D%22edgeStyle%3DorthogonalEdgeStyle%3Brounded%3D0%3BorthogonalLoop%3D1%3BjettySize%3Dauto%3Bhtml%3D1%3BexitX%3D1%3BexitY%3D0.3333333333333333%3BexitDx%3D0%3BexitDy%3D0%3BexitPerimeter%3D0%3BentryX%3D0%3BentryY%3D0.5%3BentryDx%3D0%3BentryDy%3D0%3B%22%20edge%3D%221%22%20source%3D%2215%22%20target%3D%224%22%20parent%3D%221%22%3E%3CmxGeometry%20relative%3D%221%22%20as%3D%22geometry%22%2F%3E%3C%2FmxCell%3E%3CmxCell%20id%3D%228%22%20style%3D%22edgeStyle%3DorthogonalEdgeStyle%3Brounded%3D0%3BorthogonalLoop%3D1%3BjettySize%3Dauto%3Bhtml%3D1%3BexitX%3D1%3BexitY%3D0.3333333333333333%3BexitDx%3D0%3BexitDy%3D0%3BexitPerimeter%3D0%3BentryX%3D0%3BentryY%3D0.5%3BentryDx%3D0%3BentryDy%3D0%3B%22%20edge%3D%221%22%20source%3D%2215%22%20target%3D%223%22%20parent%3D%221%22%3E%3CmxGeometry%20relative%3D%221%22%20as%3D%22geometry%22%2F%3E%3C%2FmxCell%3E%3CmxCell%20id%3D%229%22%20style%3D%22edgeStyle%3DorthogonalEdgeStyle%3Brounded%3D0%3BorthogonalLoop%3D1%3BjettySize%3Dauto%3Bhtml%3D1%3BexitX%3D1%3BexitY%3D0.3333333333333333%3BexitDx%3D0%3BexitDy%3D0%3BexitPerimeter%3D0%3BentryX%3D0%3BentryY%3D0.5%3BentryDx%3D0%3BentryDy%3D0%3B%22%20edge%3D%221%22%20source%3D%2215%22%20target%3D%2221%22%20parent%3D%221%22%3E%3CmxGeometry%20relative%3D%221%22%20as%3D%22geometry%22%2F%3E%3C%2FmxCell%3E%3CmxCell%20id%3D%2210%22%20style%3D%22edgeStyle%3DorthogonalEdgeStyle%3Brounded%3D0%3BorthogonalLoop%3D1%3BjettySize%3Dauto%3Bhtml%3D1%3BexitX%3D1%3BexitY%3D0.3333333333333333%3BexitDx%3D0%3BexitDy%3D0%3BexitPerimeter%3D0%3BentryX%3D0%3BentryY%3D0.5%3BentryDx%3D0%3BentryDy%3D0%3B%22%20edge%3D%221%22%20source%3D%2215%22%20target%3D%2230%22%20parent%3D%221%22%3E%3CmxGeometry%20relative%3D%221%22%20as%3D%22geometry%22%2F%3E%3C%2FmxCell%3E%3CmxCell%20id%3D%2211%22%20style%3D%22edgeStyle%3DorthogonalEdgeStyle%3Brounded%3D0%3BorthogonalLoop%3D1%3BjettySize%3Dauto%3Bhtml%3D1%3BexitX%3D1%3BexitY%3D0.3333333333333333%3BexitDx%3D0%3BexitDy%3D0%3BexitPerimeter%3D0%3BentryX%3D0%3BentryY%3D0.5%3BentryDx%3D0%3BentryDy%3D0%3B%22%20edge%3D%221%22%20source%3D%2215%22%20target%3D%2224%22%20parent%3D%221%22%3E%3CmxGeometry%20relative%3D%221%22%20as%3D%22geometry%22%2F%3E%3C%2FmxCell%3E%3CmxCell%20id%3D%2212%22%20style%3D%22edgeStyle%3DorthogonalEdgeStyle%3Brounded%3D0%3BorthogonalLoop%3D1%3BjettySize%3Dauto%3Bhtml%3D1%3BexitX%3D1%3BexitY%3D0.3333333333333333%3BexitDx%3D0%3BexitDy%3D0%3BexitPerimeter%3D0%3BentryX%3D0%3BentryY%3D0.5%3BentryDx%3D0%3BentryDy%3D0%3B%22%20edge%3D%221%22%20source%3D%2215%22%20target%3D%2227%22%20parent%3D%221%22%3E%3CmxGeometry%20relative%3D%221%22%20as%3D%22geometry%22%2F%3E%3C%2FmxCell%3E%3CmxCell%20id%3D%2213%22%20style%3D%22edgeStyle%3DorthogonalEdgeStyle%3Brounded%3D0%3BorthogonalLoop%3D1%3BjettySize%3Dauto%3Bhtml%3D1%3BexitX%3D1%3BexitY%3D0.3333333333333333%3BexitDx%3D0%3BexitDy%3D0%3BexitPerimeter%3D0%3BentryX%3D0%3BentryY%3D0.5%3BentryDx%3D0%3BentryDy%3D0%3B%22%20edge%3D%221%22%20source%3D%2215%22%20target%3D%2236%22%20parent%3D%221%22%3E%3CmxGeometry%20relative%3D%221%22%20as%3D%22geometry%22%2F%3E%3C%2FmxCell%3E%3CmxCell%20id%3D%2214%22%20style%3D%22edgeStyle%3DorthogonalEdgeStyle%3Brounded%3D0%3BorthogonalLoop%3D1%3BjettySize%3Dauto%3Bhtml%3D1%3BexitX%3D1%3BexitY%3D0.3333333333333333%3BexitDx%3D0%3BexitDy%3D0%3BexitPerimeter%3D0%3BentryX%3D0%3BentryY%3D0.5%3BentryDx%3D0%3BentryDy%3D0%3B%22%20edge%3D%221%22%20source%3D%2215%22%20target%3D%2233%22%20parent%3D%221%22%3E%3CmxGeometry%20relative%3D%221%22%20as%3D%22geometry%22%2F%3E%3C%2FmxCell%3E%3Cobject%20label%3D%22Admin%22%20id%3D%2215%22%3E%3CmxCell%20style%3D%22shape%3DumlActor%3BverticalLabelPosition%3Dbottom%3BlabelBackgroundColor%3D%23ffffff%3BverticalAlign%3Dtop%3Bhtml%3D1%3B%22%20vertex%3D%221%22%20parent%3D%221%22%3E%3CmxGeometry%20x%3D%2270%22%20y%3D%22368.18%22%20width%3D%2240%22%20height%3D%2290%22%20as%3D%22geometry%22%2F%3E%3C%2FmxCell%3E%3C%2Fobject%3E%3CmxCell%20id%3D%2216%22%20value%3D%22login%22%20style%3D%22text%3Bhtml%3D1%3BstrokeColor%3Dnone%3BfillColor%3Dnone%3Balign%3Dcenter%3BverticalAlign%3Dmiddle%3BwhiteSpace%3Dwrap%3Brounded%3D0%3B%22%20vertex%3D%221%22%20parent%3D%221%22%3E%3CmxGeometry%20x%3D%22240%22%20y%3D%2250%22%20width%3D%22100%22%20height%3D%2240%22%20as%3D%22geometry%22%2F%3E%3C%2FmxCell%3E%3CmxCell%20id%3D%2217%22%20value%3D%22verify%26amp%3Bnbsp%3B%20products%22%20style%3D%22text%3Bhtml%3D1%3BstrokeColor%3Dnone%3BfillColor%3Dnone%3Balign%3Dcenter%3BverticalAlign%3Dmiddle%3BwhiteSpace%3Dwrap%3Brounded%3D0%3B%22%20vertex%3D%221%22%20parent%3D%221%22%3E%3CmxGeometry%20x%3D%22240%22%20y%3D%22210%22%20width%3D%22100%22%20height%3D%2240%22%20as%3D%22geometry%22%2F%3E%3C%2FmxCell%3E%3CmxCell%20id%3D%2218%22%20value%3D%22verify%26amp%3Bnbsp%3B%20merchants%22%20style%3D%22text%3Bhtml%3D1%3BstrokeColor%3Dnone%3BfillColor%3Dnone%3Balign%3Dcenter%3BverticalAlign%3Dmiddle%3BwhiteSpace%3Dwrap%3Brounded%3D0%3B%22%20vertex%3D%221%22%20parent%3D%221%22%3E%3CmxGeometry%20x%3D%22240%22%20y%3D%22127.5%22%20width%3D%22100%22%20height%3D%2240%22%20as%3D%22geometry%22%2F%3E%3C%2FmxCell%3E%3CmxCell%20id%3D%2219%22%20value%3D%22System%22%20style%3D%22text%3Bhtml%3D1%3BstrokeColor%3Dnone%3BfillColor%3Dnone%3Balign%3Dcenter%3BverticalAlign%3Dmiddle%3BwhiteSpace%3Dwrap%3Brounded%3D0%3B%22%20vertex%3D%221%22%20parent%3D%221%22%3E%3CmxGeometry%20x%3D%22260%22%20y%3D%2210%22%20width%3D%2240%22%20height%3D%2220%22%20as%3D%22geometry%22%2F%3E%3C%2FmxCell%3E%3CmxCell%20id%3D%2220%22%20value%3D%22%22%20style%3D%22group%22%20vertex%3D%221%22%20connectable%3D%220%22%20parent%3D%221%22%3E%3CmxGeometry%20x%3D%22230%22%20y%3D%22290%22%20width%3D%22120%22%20height%3D%2261%22%20as%3D%22geometry%22%2F%3E%3C%2FmxCell%3E%3CmxCell%20id%3D%2221%22%20value%3D%22%22%20style%3D%22ellipse%3BwhiteSpace%3Dwrap%3Bhtml%3D1%3B%22%20vertex%3D%221%22%20parent%3D%2220%22%3E%3CmxGeometry%20width%3D%22120%22%20height%3D%2261%22%20as%3D%22geometry%22%2F%3E%3C%2FmxCell%3E%3CmxCell%20id%3D%2222%22%20value%3D%22view%20feedbacks%2Fquery%22%20style%3D%22text%3Bhtml%3D1%3BstrokeColor%3Dnone%3BfillColor%3Dnone%3Balign%3Dcenter%3BverticalAlign%3Dmiddle%3BwhiteSpace%3Dwrap%3Brounded%3D0%3B%22%20vertex%3D%221%22%20parent%3D%2220%22%3E%3CmxGeometry%20x%3D%2210%22%20y%3D%2210.5%22%20width%3D%22100%22%20height%3D%2240%22%20as%3D%22geometry%22%2F%3E%3C%2FmxCell%3E%3CmxCell%20id%3D%2223%22%20value%3D%22%22%20style%3D%22group%22%20vertex%3D%221%22%20connectable%3D%220%22%20parent%3D%221%22%3E%3CmxGeometry%20x%3D%22230%22%20y%3D%22440%22%20width%3D%22120%22%20height%3D%2261%22%20as%3D%22geometry%22%2F%3E%3C%2FmxCell%3E%3CmxCell%20id%3D%2224%22%20value%3D%22%22%20style%3D%22ellipse%3BwhiteSpace%3Dwrap%3Bhtml%3D1%3B%22%20vertex%3D%221%22%20parent%3D%2223%22%3E%3CmxGeometry%20width%3D%22120%22%20height%3D%2261%22%20as%3D%22geometry%22%2F%3E%3C%2FmxCell%3E%3CmxCell%20id%3D%2225%22%20value%3D%22Receive%20payment%20from%20users%26amp%3Bnbsp%3B%22%20style%3D%22text%3Bhtml%3D1%3BstrokeColor%3Dnone%3BfillColor%3Dnone%3Balign%3Dcenter%3BverticalAlign%3Dmiddle%3BwhiteSpace%3Dwrap%3Brounded%3D0%3B%22%20vertex%3D%221%22%20parent%3D%2223%22%3E%3CmxGeometry%20x%3D%2210%22%20y%3D%2210.5%22%20width%3D%22100%22%20height%3D%2240%22%20as%3D%22geometry%22%2F%3E%3C%2FmxCell%3E%3CmxCell%20id%3D%2226%22%20value%3D%22%22%20style%3D%22group%22%20vertex%3D%221%22%20connectable%3D%220%22%20parent%3D%221%22%3E%3CmxGeometry%20x%3D%22230%22%20y%3D%22521%22%20width%3D%22120%22%20height%3D%2261%22%20as%3D%22geometry%22%2F%3E%3C%2FmxCell%3E%3CmxCell%20id%3D%2227%22%20value%3D%22%22%20style%3D%22ellipse%3BwhiteSpace%3Dwrap%3Bhtml%3D1%3B%22%20vertex%3D%221%22%20parent%3D%2226%22%3E%3CmxGeometry%20width%3D%22120%22%20height%3D%2261%22%20as%3D%22geometry%22%2F%3E%3C%2FmxCell%3E%3CmxCell%20id%3D%2228%22%20value%3D%22Send%20payment%20to%20Merchant%22%20style%3D%22text%3Bhtml%3D1%3BstrokeColor%3Dnone%3BfillColor%3Dnone%3Balign%3Dcenter%3BverticalAlign%3Dmiddle%3BwhiteSpace%3Dwrap%3Brounded%3D0%3B%22%20vertex%3D%221%22%20parent%3D%2226%22%3E%3CmxGeometry%20x%3D%2210%22%20y%3D%2210.5%22%20width%3D%22100%22%20height%3D%2240%22%20as%3D%22geometry%22%2F%3E%3C%2FmxCell%3E%3CmxCell%20id%3D%2229%22%20value%3D%22%22%20style%3D%22group%22%20vertex%3D%221%22%20connectable%3D%220%22%20parent%3D%221%22%3E%3CmxGeometry%20x%3D%22230%22%20y%3D%22368.18%22%20width%3D%22120%22%20height%3D%2261%22%20as%3D%22geometry%22%2F%3E%3C%2FmxCell%3E%3CmxCell%20id%3D%2230%22%20value%3D%22%22%20style%3D%22ellipse%3BwhiteSpace%3Dwrap%3Bhtml%3D1%3B%22%20vertex%3D%221%22%20parent%3D%2229%22%3E%3CmxGeometry%20width%3D%22120%22%20height%3D%2261%22%20as%3D%22geometry%22%2F%3E%3C%2FmxCell%3E%3CmxCell%20id%3D%2231%22%20value%3D%22reply%20feedbacks%2Fquery%22%20style%3D%22text%3Bhtml%3D1%3BstrokeColor%3Dnone%3BfillColor%3Dnone%3Balign%3Dcenter%3BverticalAlign%3Dmiddle%3BwhiteSpace%3Dwrap%3Brounded%3D0%3B%22%20vertex%3D%221%22%20parent%3D%2229%22%3E%3CmxGeometry%20x%3D%2210%22%20y%3D%2210.5%22%20width%3D%22100%22%20height%3D%2240%22%20as%3D%22geometry%22%2F%3E%3C%2FmxCell%3E%3CmxCell%20id%3D%2232%22%20value%3D%22%22%20style%3D%22group%22%20vertex%3D%221%22%20connectable%3D%220%22%20parent%3D%221%22%3E%3CmxGeometry%20x%3D%22230%22%20y%3D%22690%22%20width%3D%22120%22%20height%3D%2261%22%20as%3D%22geometry%22%2F%3E%3C%2FmxCell%3E%3CmxCell%20id%3D%2233%22%20value%3D%22%22%20style%3D%22ellipse%3BwhiteSpace%3Dwrap%3Bhtml%3D1%3B%22%20vertex%3D%221%22%20parent%3D%2232%22%3E%3CmxGeometry%20width%3D%22120%22%20height%3D%2261%22%20as%3D%22geometry%22%2F%3E%3C%2FmxCell%3E%3CmxCell%20id%3D%2234%22%20value%3D%22Send%20payment%20to%20user(cancelled%20orders)%22%20style%3D%22text%3Bhtml%3D1%3BstrokeColor%3Dnone%3BfillColor%3Dnone%3Balign%3Dcenter%3BverticalAlign%3Dmiddle%3BwhiteSpace%3Dwrap%3Brounded%3D0%3B%22%20vertex%3D%221%22%20parent%3D%2232%22%3E%3CmxGeometry%20x%3D%2210%22%20y%3D%2210.5%22%20width%3D%22100%22%20height%3D%2240%22%20as%3D%22geometry%22%2F%3E%3C%2FmxCell%3E%3CmxCell%20id%3D%2235%22%20value%3D%22%22%20style%3D%22group%22%20vertex%3D%221%22%20connectable%3D%220%22%20parent%3D%221%22%3E%3CmxGeometry%20x%3D%22230%22%20y%3D%22610%22%20width%3D%22120%22%20height%3D%2261%22%20as%3D%22geometry%22%2F%3E%3C%2FmxCell%3E%3CmxCell%20id%3D%2236%22%20value%3D%22%22%20style%3D%22ellipse%3BwhiteSpace%3Dwrap%3Bhtml%3D1%3B%22%20vertex%3D%221%22%20parent%3D%2235%22%3E%3CmxGeometry%20width%3D%22120%22%20height%3D%2261%22%20as%3D%22geometry%22%2F%3E%3C%2FmxCell%3E%3CmxCell%20id%3D%2237%22%20value%3D%22Send%20payment%20to%20Delivery%20agent%22%20style%3D%22text%3Bhtml%3D1%3BstrokeColor%3Dnone%3BfillColor%3Dnone%3Balign%3Dcenter%3BverticalAlign%3Dmiddle%3BwhiteSpace%3Dwrap%3Brounded%3D0%3B%22%20vertex%3D%221%22%20parent%3D%2235%22%3E%3CmxGeometry%20x%3D%2210%22%20y%3D%2210.5%22%20width%3D%22100%22%20height%3D%2240%22%20as%3D%22geometry%22%2F%3E%3C%2FmxCell%3E%3CmxCell%20id%3D%2238%22%20style%3D%22edgeStyle%3DorthogonalEdgeStyle%3Brounded%3D0%3BorthogonalLoop%3D1%3BjettySize%3Dauto%3Bhtml%3D1%3BexitX%3D0%3BexitY%3D0.3333333333333333%3BexitDx%3D0%3BexitDy%3D0%3BexitPerimeter%3D0%3BentryX%3D1%3BentryY%3D0.5%3BentryDx%3D0%3BentryDy%3D0%3B%22%20edge%3D%221%22%20source%3D%2239%22%20target%3D%2224%22%20parent%3D%221%22%3E%3CmxGeometry%20relative%3D%221%22%20as%3D%22geometry%22%2F%3E%3C%2FmxCell%3E%3Cobject%20label%3D%22Payment%20service%22%20id%3D%2239%22%3E%3CmxCell%20style%3D%22shape%3DumlActor%3BverticalLabelPosition%3Dbottom%3BlabelBackgroundColor%3D%23ffffff%3BverticalAlign%3Dtop%3Bhtml%3D1%3B%22%20vertex%3D%221%22%20parent%3D%221%22%3E%3CmxGeometry%20x%3D%22520%22%20y%3D%22540%22%20width%3D%2240%22%20height%3D%2290%22%20as%3D%22geometry%22%2F%3E%3C%2FmxCell%3E%3C%2Fobject%3E%3CmxCell%20id%3D%2240%22%20style%3D%22edgeStyle%3DorthogonalEdgeStyle%3Brounded%3D0%3BorthogonalLoop%3D1%3BjettySize%3Dauto%3Bhtml%3D1%3BexitX%3D1%3BexitY%3D0.5%3BexitDx%3D0%3BexitDy%3D0%3BentryX%3D0%3BentryY%3D0.3333333333333333%3BentryDx%3D0%3BentryDy%3D0%3BentryPerimeter%3D0%3B%22%20edge%3D%221%22%20source%3D%2227%22%20target%3D%2239%22%20parent%3D%221%22%3E%3CmxGeometry%20relative%3D%221%22%20as%3D%22geometry%22%2F%3E%3C%2FmxCell%3E%3CmxCell%20id%3D%2241%22%20style%3D%22edgeStyle%3DorthogonalEdgeStyle%3Brounded%3D0%3BorthogonalLoop%3D1%3BjettySize%3Dauto%3Bhtml%3D1%3BexitX%3D1%3BexitY%3D0.5%3BexitDx%3D0%3BexitDy%3D0%3BentryX%3D0%3BentryY%3D0.3333333333333333%3BentryDx%3D0%3BentryDy%3D0%3BentryPerimeter%3D0%3B%22%20edge%3D%221%22%20source%3D%2236%22%20target%3D%2239%22%20parent%3D%221%22%3E%3CmxGeometry%20relative%3D%221%22%20as%3D%22geometry%22%2F%3E%3C%2FmxCell%3E%3CmxCell%20id%3D%2242%22%20style%3D%22edgeStyle%3DorthogonalEdgeStyle%3Brounded%3D0%3BorthogonalLoop%3D1%3BjettySize%3Dauto%3Bhtml%3D1%3BexitX%3D1%3BexitY%3D0.5%3BexitDx%3D0%3BexitDy%3D0%3BentryX%3D0%3BentryY%3D0.3333333333333333%3BentryDx%3D0%3BentryDy%3D0%3BentryPerimeter%3D0%3B%22%20edge%3D%221%22%20source%3D%2233%22%20target%3D%2239%22%20parent%3D%221%22%3E%3CmxGeometry%20relative%3D%221%22%20as%3D%22geometry%22%2F%3E%3C%2FmxCell%3E%3CmxCell%20id%3D%2243%22%20value%3D%22%26amp%3Blt%3B%26amp%3Blt%3BQ%26amp%3Bgt%3B%26amp%3Bgt%3B%22%20style%3D%22text%3Bhtml%3D1%3Bresizable%3D0%3Bautosize%3D1%3Balign%3Dcenter%3BverticalAlign%3Dmiddle%3Bpoints%3D%5B%5D%3BfillColor%3Dnone%3BstrokeColor%3Dnone%3Brounded%3D0%3B%22%20vertex%3D%221%22%20parent%3D%221%22%3E%3CmxGeometry%20x%3D%22165%22%20y%3D%2244.440000000000055%22%20width%3D%2250%22%20height%3D%2220%22%20as%3D%22geometry%22%2F%3E%3C%2FmxCell%3E%3CmxCell%20id%3D%2244%22%20value%3D%22%26amp%3Blt%3B%26amp%3Blt%3BM%26amp%3Bgt%3B%26amp%3Bgt%3B%22%20style%3D%22text%3Bhtml%3D1%3Bresizable%3D0%3Bautosize%3D1%3Balign%3Dcenter%3BverticalAlign%3Dmiddle%3Bpoints%3D%5B%5D%3BfillColor%3Dnone%3BstrokeColor%3Dnone%3Brounded%3D0%3B%22%20vertex%3D%221%22%20parent%3D%221%22%3E%3CmxGeometry%20x%3D%22165%22%20y%3D%22119.50000000000006%22%20width%3D%2250%22%20height%3D%2220%22%20as%3D%22geometry%22%2F%3E%3C%2FmxCell%3E%3CmxCell%20id%3D%2245%22%20value%3D%22%26amp%3Blt%3B%26amp%3Blt%3BM%26amp%3Bgt%3B%26amp%3Bgt%3B%22%20style%3D%22text%3Bhtml%3D1%3Bresizable%3D0%3Bautosize%3D1%3Balign%3Dcenter%3BverticalAlign%3Dmiddle%3Bpoints%3D%5B%5D%3BfillColor%3Dnone%3BstrokeColor%3Dnone%3Brounded%3D0%3B%22%20vertex%3D%221%22%20parent%3D%221%22%3E%3CmxGeometry%20x%3D%22165%22%20y%3D%22200.00000000000006%22%20width%3D%2250%22%20height%3D%2220%22%20as%3D%22geometry%22%2F%3E%3C%2FmxCell%3E%3CmxCell%20id%3D%2246%22%20value%3D%22%26amp%3Blt%3B%26amp%3Blt%3BM%26amp%3Bgt%3B%26amp%3Bgt%3B%22%20style%3D%22text%3Bhtml%3D1%3Bresizable%3D0%3Bautosize%3D1%3Balign%3Dcenter%3BverticalAlign%3Dmiddle%3Bpoints%3D%5B%5D%3BfillColor%3Dnone%3BstrokeColor%3Dnone%3Brounded%3D0%3B%22%20vertex%3D%221%22%20parent%3D%221%22%3E%3CmxGeometry%20x%3D%22165%22%20y%3D%22370.00000000000006%22%20width%3D%2250%22%20height%3D%2220%22%20as%3D%22geometry%22%2F%3E%3C%2FmxCell%3E%3CmxCell%20id%3D%2247%22%20value%3D%22%26amp%3Blt%3B%26amp%3Blt%3BQ%26amp%3Bgt%3B%26amp%3Bgt%3B%22%20style%3D%22text%3Bhtml%3D1%3Bresizable%3D0%3Bautosize%3D1%3Balign%3Dcenter%3BverticalAlign%3Dmiddle%3Bpoints%3D%5B%5D%3BfillColor%3Dnone%3BstrokeColor%3Dnone%3Brounded%3D0%3B%22%20vertex%3D%221%22%20parent%3D%221%22%3E%3CmxGeometry%20x%3D%22165%22%20y%3D%22300.00000000000006%22%20width%3D%2250%22%20height%3D%2220%22%20as%3D%22geometry%22%2F%3E%3C%2FmxCell%3E%3CmxCell%20id%3D%2248%22%20value%3D%22%26amp%3Blt%3B%26amp%3Blt%3BM%26amp%3Bgt%3B%26amp%3Bgt%3B%22%20style%3D%22text%3Bhtml%3D1%3Bresizable%3D0%3Bautosize%3D1%3Balign%3Dcenter%3BverticalAlign%3Dmiddle%3Bpoints%3D%5B%5D%3BfillColor%3Dnone%3BstrokeColor%3Dnone%3Brounded%3D0%3B%22%20vertex%3D%221%22%20parent%3D%221%22%3E%3CmxGeometry%20x%3D%22165%22%20y%3D%22530%22%20width%3D%2250%22%20height%3D%2220%22%20as%3D%22geometry%22%2F%3E%3C%2FmxCell%3E%3CmxCell%20id%3D%2249%22%20value%3D%22%26amp%3Blt%3B%26amp%3Blt%3BQ%26amp%3Bgt%3B%26amp%3Bgt%3B%22%20style%3D%22text%3Bhtml%3D1%3Bresizable%3D0%3Bautosize%3D1%3Balign%3Dcenter%3BverticalAlign%3Dmiddle%3Bpoints%3D%5B%5D%3BfillColor%3Dnone%3BstrokeColor%3Dnone%3Brounded%3D0%3B%22%20vertex%3D%221%22%20parent%3D%221%22%3E%3CmxGeometry%20x%3D%22165%22%20y%3D%22450.00000000000006%22%20width%3D%2250%22%20height%3D%2220%22%20as%3D%22geometry%22%2F%3E%3C%2FmxCell%3E%3CmxCell%20id%3D%2250%22%20value%3D%22%26amp%3Blt%3B%26amp%3Blt%3BQ%26amp%3Bgt%3B%26amp%3Bgt%3B%22%20style%3D%22text%3Bhtml%3D1%3Bresizable%3D0%3Bautosize%3D1%3Balign%3Dcenter%3BverticalAlign%3Dmiddle%3Bpoints%3D%5B%5D%3BfillColor%3Dnone%3BstrokeColor%3Dnone%3Brounded%3D0%3B%22%20vertex%3D%221%22%20parent%3D%221%22%3E%3CmxGeometry%20x%3D%22390%22%20y%3D%22530%22%20width%3D%2250%22%20height%3D%2220%22%20as%3D%22geometry%22%2F%3E%3C%2FmxCell%3E%3CmxCell%20id%3D%2251%22%20value%3D%22%26amp%3Blt%3B%26amp%3Blt%3BM%26amp%3Bgt%3B%26amp%3Bgt%3B%22%20style%3D%22text%3Bhtml%3D1%3Bresizable%3D0%3Bautosize%3D1%3Balign%3Dcenter%3BverticalAlign%3Dmiddle%3Bpoints%3D%5B%5D%3BfillColor%3Dnone%3BstrokeColor%3Dnone%3Brounded%3D0%3B%22%20vertex%3D%221%22%20parent%3D%221%22%3E%3CmxGeometry%20x%3D%22390%22%20y%3D%22450%22%20width%3D%2250%22%20height%3D%2220%22%20as%3D%22geometry%22%2F%3E%3C%2FmxCell%3E%3CmxCell%20id%3D%2252%22%20value%3D%22%26amp%3Blt%3B%26amp%3Blt%3BM%26amp%3Bgt%3B%26amp%3Bgt%3B%22%20style%3D%22text%3Bhtml%3D1%3Bresizable%3D0%3Bautosize%3D1%3Balign%3Dcenter%3BverticalAlign%3Dmiddle%3Bpoints%3D%5B%5D%3BfillColor%3Dnone%3BstrokeColor%3Dnone%3Brounded%3D0%3B%22%20vertex%3D%221%22%20parent%3D%221%22%3E%3CmxGeometry%20x%3D%22170%22%20y%3D%22700%22%20width%3D%2250%22%20height%3D%2220%22%20as%3D%22geometry%22%2F%3E%3C%2FmxCell%3E%3CmxCell%20id%3D%2253%22%20value%3D%22%26amp%3Blt%3B%26amp%3Blt%3BM%26amp%3Bgt%3B%26amp%3Bgt%3B%22%20style%3D%22text%3Bhtml%3D1%3Bresizable%3D0%3Bautosize%3D1%3Balign%3Dcenter%3BverticalAlign%3Dmiddle%3Bpoints%3D%5B%5D%3BfillColor%3Dnone%3BstrokeColor%3Dnone%3Brounded%3D0%3B%22%20vertex%3D%221%22%20parent%3D%221%22%3E%3CmxGeometry%20x%3D%22170%22%20y%3D%22620%22%20width%3D%2250%22%20height%3D%2220%22%20as%3D%22geometry%22%2F%3E%3C%2FmxCell%3E%3CmxCell%20id%3D%2254%22%20value%3D%22%26amp%3Blt%3B%26amp%3Blt%3BQ%26amp%3Bgt%3B%26amp%3Bgt%3B%22%20style%3D%22text%3Bhtml%3D1%3Bresizable%3D0%3Bautosize%3D1%3Balign%3Dcenter%3BverticalAlign%3Dmiddle%3Bpoints%3D%5B%5D%3BfillColor%3Dnone%3BstrokeColor%3Dnone%3Brounded%3D0%3B%22%20vertex%3D%221%22%20parent%3D%221%22%3E%3CmxGeometry%20x%3D%22386%22%20y%3D%22620%22%20width%3D%2250%22%20height%3D%2220%22%20as%3D%22geometry%22%2F%3E%3C%2FmxCell%3E%3CmxCell%20id%3D%2255%22%20value%3D%22%26amp%3Blt%3B%26amp%3Blt%3BQ%26amp%3Bgt%3B%26amp%3Bgt%3B%22%20style%3D%22text%3Bhtml%3D1%3Bresizable%3D0%3Bautosize%3D1%3Balign%3Dcenter%3BverticalAlign%3Dmiddle%3Bpoints%3D%5B%5D%3BfillColor%3Dnone%3BstrokeColor%3Dnone%3Brounded%3D0%3B%22%20vertex%3D%221%22%20parent%3D%221%22%3E%3CmxGeometry%20x%3D%22386%22%20y%3D%22700%22%20width%3D%2250%22%20height%3D%2220%22%20as%3D%22geometry%22%2F%3E%3C%2FmxCell%3E%3C%2Froot%3E%3C%2FmxGraphModel%3E&lt;/span&gt;" style="text;html=1;align=center;verticalAlign=middle;resizable=0;points=[];autosize=1;" vertex="1" parent="CztYsGBarheONfb3hWxK-1">
          <mxGeometry x="215" y="177" width="20" height="20" as="geometry"/>
        </mxCell>
        <mxCell id="A0rY-jvUmG3pUJsESO20-109" value="" style="rounded=0;whiteSpace=wrap;html=1;" vertex="1" parent="CztYsGBarheONfb3hWxK-1">
          <mxGeometry x="170" y="20.25" width="300" height="769.75" as="geometry"/>
        </mxCell>
        <mxCell id="A0rY-jvUmG3pUJsESO20-110" value="" style="ellipse;whiteSpace=wrap;html=1;" vertex="1" parent="CztYsGBarheONfb3hWxK-1">
          <mxGeometry x="250" y="218.5" width="120" height="61" as="geometry"/>
        </mxCell>
        <mxCell id="A0rY-jvUmG3pUJsESO20-111" value="" style="ellipse;whiteSpace=wrap;html=1;" vertex="1" parent="CztYsGBarheONfb3hWxK-1">
          <mxGeometry x="250" y="139.5" width="120" height="61" as="geometry"/>
        </mxCell>
        <mxCell id="A0rY-jvUmG3pUJsESO20-112" value="" style="ellipse;whiteSpace=wrap;html=1;" vertex="1" parent="CztYsGBarheONfb3hWxK-1">
          <mxGeometry x="250" y="59" width="120" height="61" as="geometry"/>
        </mxCell>
        <mxCell id="A0rY-jvUmG3pUJsESO20-113" style="edgeStyle=orthogonalEdgeStyle;rounded=0;orthogonalLoop=1;jettySize=auto;html=1;exitX=1;exitY=0.3333333333333333;exitDx=0;exitDy=0;exitPerimeter=0;entryX=0;entryY=0.5;entryDx=0;entryDy=0;" edge="1" parent="CztYsGBarheONfb3hWxK-1" source="A0rY-jvUmG3pUJsESO20-122" target="A0rY-jvUmG3pUJsESO20-112">
          <mxGeometry relative="1" as="geometry"/>
        </mxCell>
        <mxCell id="A0rY-jvUmG3pUJsESO20-114" style="edgeStyle=orthogonalEdgeStyle;rounded=0;orthogonalLoop=1;jettySize=auto;html=1;exitX=1;exitY=0.3333333333333333;exitDx=0;exitDy=0;exitPerimeter=0;entryX=0;entryY=0.5;entryDx=0;entryDy=0;" edge="1" parent="CztYsGBarheONfb3hWxK-1" source="A0rY-jvUmG3pUJsESO20-122" target="A0rY-jvUmG3pUJsESO20-111">
          <mxGeometry relative="1" as="geometry"/>
        </mxCell>
        <mxCell id="A0rY-jvUmG3pUJsESO20-115" style="edgeStyle=orthogonalEdgeStyle;rounded=0;orthogonalLoop=1;jettySize=auto;html=1;exitX=1;exitY=0.3333333333333333;exitDx=0;exitDy=0;exitPerimeter=0;entryX=0;entryY=0.5;entryDx=0;entryDy=0;" edge="1" parent="CztYsGBarheONfb3hWxK-1" source="A0rY-jvUmG3pUJsESO20-122" target="A0rY-jvUmG3pUJsESO20-110">
          <mxGeometry relative="1" as="geometry"/>
        </mxCell>
        <mxCell id="A0rY-jvUmG3pUJsESO20-116" style="edgeStyle=orthogonalEdgeStyle;rounded=0;orthogonalLoop=1;jettySize=auto;html=1;exitX=1;exitY=0.3333333333333333;exitDx=0;exitDy=0;exitPerimeter=0;entryX=0;entryY=0.5;entryDx=0;entryDy=0;" edge="1" parent="CztYsGBarheONfb3hWxK-1" source="A0rY-jvUmG3pUJsESO20-122" target="A0rY-jvUmG3pUJsESO20-128">
          <mxGeometry relative="1" as="geometry"/>
        </mxCell>
        <mxCell id="A0rY-jvUmG3pUJsESO20-117" style="edgeStyle=orthogonalEdgeStyle;rounded=0;orthogonalLoop=1;jettySize=auto;html=1;exitX=1;exitY=0.3333333333333333;exitDx=0;exitDy=0;exitPerimeter=0;entryX=0;entryY=0.5;entryDx=0;entryDy=0;" edge="1" parent="CztYsGBarheONfb3hWxK-1" source="A0rY-jvUmG3pUJsESO20-122" target="A0rY-jvUmG3pUJsESO20-137">
          <mxGeometry relative="1" as="geometry"/>
        </mxCell>
        <mxCell id="A0rY-jvUmG3pUJsESO20-118" style="edgeStyle=orthogonalEdgeStyle;rounded=0;orthogonalLoop=1;jettySize=auto;html=1;exitX=1;exitY=0.3333333333333333;exitDx=0;exitDy=0;exitPerimeter=0;entryX=0;entryY=0.5;entryDx=0;entryDy=0;" edge="1" parent="CztYsGBarheONfb3hWxK-1" source="A0rY-jvUmG3pUJsESO20-122" target="A0rY-jvUmG3pUJsESO20-131">
          <mxGeometry relative="1" as="geometry"/>
        </mxCell>
        <mxCell id="A0rY-jvUmG3pUJsESO20-119" style="edgeStyle=orthogonalEdgeStyle;rounded=0;orthogonalLoop=1;jettySize=auto;html=1;exitX=1;exitY=0.3333333333333333;exitDx=0;exitDy=0;exitPerimeter=0;entryX=0;entryY=0.5;entryDx=0;entryDy=0;" edge="1" parent="CztYsGBarheONfb3hWxK-1" source="A0rY-jvUmG3pUJsESO20-122" target="A0rY-jvUmG3pUJsESO20-134">
          <mxGeometry relative="1" as="geometry"/>
        </mxCell>
        <mxCell id="ITXyS0Sbe03Rq1BltJPA-4" style="edgeStyle=orthogonalEdgeStyle;rounded=0;orthogonalLoop=1;jettySize=auto;html=1;exitX=1;exitY=0.3333333333333333;exitDx=0;exitDy=0;exitPerimeter=0;entryX=0;entryY=0.5;entryDx=0;entryDy=0;" edge="1" parent="CztYsGBarheONfb3hWxK-1" source="A0rY-jvUmG3pUJsESO20-122" target="ITXyS0Sbe03Rq1BltJPA-2">
          <mxGeometry relative="1" as="geometry"/>
        </mxCell>
        <object label="Delivery agent" id="A0rY-jvUmG3pUJsESO20-122">
          <mxCell style="shape=umlActor;verticalLabelPosition=bottom;labelBackgroundColor=#ffffff;verticalAlign=top;html=1;" vertex="1" parent="CztYsGBarheONfb3hWxK-1">
            <mxGeometry x="90" y="220" width="40" height="90" as="geometry"/>
          </mxCell>
        </object>
        <mxCell id="A0rY-jvUmG3pUJsESO20-123" value="Login" style="text;html=1;strokeColor=none;fillColor=none;align=center;verticalAlign=middle;whiteSpace=wrap;rounded=0;" vertex="1" parent="CztYsGBarheONfb3hWxK-1">
          <mxGeometry x="260" y="70" width="100" height="40" as="geometry"/>
        </mxCell>
        <mxCell id="A0rY-jvUmG3pUJsESO20-124" value="Enter areas covered&amp;nbsp;" style="text;html=1;strokeColor=none;fillColor=none;align=center;verticalAlign=middle;whiteSpace=wrap;rounded=0;" vertex="1" parent="CztYsGBarheONfb3hWxK-1">
          <mxGeometry x="260" y="230" width="100" height="40" as="geometry"/>
        </mxCell>
        <mxCell id="A0rY-jvUmG3pUJsESO20-125" value="Register" style="text;html=1;strokeColor=none;fillColor=none;align=center;verticalAlign=middle;whiteSpace=wrap;rounded=0;" vertex="1" parent="CztYsGBarheONfb3hWxK-1">
          <mxGeometry x="260" y="147.5" width="100" height="40" as="geometry"/>
        </mxCell>
        <mxCell id="A0rY-jvUmG3pUJsESO20-126" value="System" style="text;html=1;strokeColor=none;fillColor=none;align=center;verticalAlign=middle;whiteSpace=wrap;rounded=0;" vertex="1" parent="CztYsGBarheONfb3hWxK-1">
          <mxGeometry x="280" y="30" width="40" height="20" as="geometry"/>
        </mxCell>
        <mxCell id="A0rY-jvUmG3pUJsESO20-127" value="" style="group" vertex="1" connectable="0" parent="CztYsGBarheONfb3hWxK-1">
          <mxGeometry x="250" y="310" width="120" height="61" as="geometry"/>
        </mxCell>
        <mxCell id="A0rY-jvUmG3pUJsESO20-128" value="" style="ellipse;whiteSpace=wrap;html=1;" vertex="1" parent="A0rY-jvUmG3pUJsESO20-127">
          <mxGeometry width="120" height="61" as="geometry"/>
        </mxCell>
        <mxCell id="A0rY-jvUmG3pUJsESO20-129" value="Recieve Products" style="text;html=1;strokeColor=none;fillColor=none;align=center;verticalAlign=middle;whiteSpace=wrap;rounded=0;" vertex="1" parent="A0rY-jvUmG3pUJsESO20-127">
          <mxGeometry x="10" y="10.5" width="100" height="40" as="geometry"/>
        </mxCell>
        <mxCell id="A0rY-jvUmG3pUJsESO20-130" value="" style="group" vertex="1" connectable="0" parent="CztYsGBarheONfb3hWxK-1">
          <mxGeometry x="250" y="554" width="120" height="61" as="geometry"/>
        </mxCell>
        <mxCell id="A0rY-jvUmG3pUJsESO20-131" value="" style="ellipse;whiteSpace=wrap;html=1;" vertex="1" parent="A0rY-jvUmG3pUJsESO20-130">
          <mxGeometry width="120" height="61" as="geometry"/>
        </mxCell>
        <mxCell id="A0rY-jvUmG3pUJsESO20-132" value="Get warehouse detials" style="text;html=1;strokeColor=none;fillColor=none;align=center;verticalAlign=middle;whiteSpace=wrap;rounded=0;" vertex="1" parent="A0rY-jvUmG3pUJsESO20-130">
          <mxGeometry x="10" y="10.5" width="100" height="40" as="geometry"/>
        </mxCell>
        <mxCell id="A0rY-jvUmG3pUJsESO20-133" value="" style="group" vertex="1" connectable="0" parent="CztYsGBarheONfb3hWxK-1">
          <mxGeometry x="250" y="650" width="120" height="61" as="geometry"/>
        </mxCell>
        <mxCell id="A0rY-jvUmG3pUJsESO20-134" value="" style="ellipse;whiteSpace=wrap;html=1;" vertex="1" parent="A0rY-jvUmG3pUJsESO20-133">
          <mxGeometry width="120" height="61" as="geometry"/>
        </mxCell>
        <mxCell id="A0rY-jvUmG3pUJsESO20-135" value="Receive payment from admin for delivery&amp;nbsp;" style="text;html=1;strokeColor=none;fillColor=none;align=center;verticalAlign=middle;whiteSpace=wrap;rounded=0;" vertex="1" parent="A0rY-jvUmG3pUJsESO20-133">
          <mxGeometry x="10" y="10.5" width="100" height="40" as="geometry"/>
        </mxCell>
        <mxCell id="A0rY-jvUmG3pUJsESO20-136" value="" style="group" vertex="1" connectable="0" parent="CztYsGBarheONfb3hWxK-1">
          <mxGeometry x="250" y="480" width="120" height="61" as="geometry"/>
        </mxCell>
        <mxCell id="A0rY-jvUmG3pUJsESO20-137" value="" style="ellipse;whiteSpace=wrap;html=1;" vertex="1" parent="A0rY-jvUmG3pUJsESO20-136">
          <mxGeometry width="120" height="61" as="geometry"/>
        </mxCell>
        <mxCell id="A0rY-jvUmG3pUJsESO20-138" value="Update product delivery status&amp;nbsp;" style="text;html=1;strokeColor=none;fillColor=none;align=center;verticalAlign=middle;whiteSpace=wrap;rounded=0;" vertex="1" parent="A0rY-jvUmG3pUJsESO20-136">
          <mxGeometry x="10" y="10.5" width="100" height="40" as="geometry"/>
        </mxCell>
        <object label="Payment service" id="A0rY-jvUmG3pUJsESO20-146">
          <mxCell style="shape=umlActor;verticalLabelPosition=bottom;labelBackgroundColor=#ffffff;verticalAlign=top;html=1;" vertex="1" parent="CztYsGBarheONfb3hWxK-1">
            <mxGeometry x="540" y="431" width="40" height="90" as="geometry"/>
          </mxCell>
        </object>
        <mxCell id="A0rY-jvUmG3pUJsESO20-147" style="edgeStyle=orthogonalEdgeStyle;rounded=0;orthogonalLoop=1;jettySize=auto;html=1;exitX=1;exitY=0.5;exitDx=0;exitDy=0;entryX=0;entryY=0.3333333333333333;entryDx=0;entryDy=0;entryPerimeter=0;" edge="1" parent="CztYsGBarheONfb3hWxK-1" source="A0rY-jvUmG3pUJsESO20-134" target="A0rY-jvUmG3pUJsESO20-146">
          <mxGeometry relative="1" as="geometry"/>
        </mxCell>
        <mxCell id="A0rY-jvUmG3pUJsESO20-150" value="&amp;lt;&amp;lt;Q&amp;gt;&amp;gt;" style="text;html=1;resizable=0;autosize=1;align=center;verticalAlign=middle;points=[];fillColor=none;strokeColor=none;rounded=0;" vertex="1" parent="CztYsGBarheONfb3hWxK-1">
          <mxGeometry x="185" y="64.44000000000005" width="50" height="20" as="geometry"/>
        </mxCell>
        <mxCell id="A0rY-jvUmG3pUJsESO20-151" value="&amp;lt;&amp;lt;M&amp;gt;&amp;gt;" style="text;html=1;resizable=0;autosize=1;align=center;verticalAlign=middle;points=[];fillColor=none;strokeColor=none;rounded=0;" vertex="1" parent="CztYsGBarheONfb3hWxK-1">
          <mxGeometry x="185" y="139.50000000000006" width="50" height="20" as="geometry"/>
        </mxCell>
        <mxCell id="A0rY-jvUmG3pUJsESO20-152" value="&amp;lt;&amp;lt;M&amp;gt;&amp;gt;" style="text;html=1;resizable=0;autosize=1;align=center;verticalAlign=middle;points=[];fillColor=none;strokeColor=none;rounded=0;" vertex="1" parent="CztYsGBarheONfb3hWxK-1">
          <mxGeometry x="185" y="220.00000000000006" width="50" height="20" as="geometry"/>
        </mxCell>
        <mxCell id="A0rY-jvUmG3pUJsESO20-153" value="&amp;lt;&amp;lt;M&amp;gt;&amp;gt;" style="text;html=1;resizable=0;autosize=1;align=center;verticalAlign=middle;points=[];fillColor=none;strokeColor=none;rounded=0;" vertex="1" parent="CztYsGBarheONfb3hWxK-1">
          <mxGeometry x="185" y="470.00000000000006" width="50" height="20" as="geometry"/>
        </mxCell>
        <mxCell id="A0rY-jvUmG3pUJsESO20-154" value="&amp;lt;&amp;lt;Q&amp;gt;&amp;gt;" style="text;html=1;resizable=0;autosize=1;align=center;verticalAlign=middle;points=[];fillColor=none;strokeColor=none;rounded=0;" vertex="1" parent="CztYsGBarheONfb3hWxK-1">
          <mxGeometry x="185" y="320.00000000000006" width="50" height="20" as="geometry"/>
        </mxCell>
        <mxCell id="A0rY-jvUmG3pUJsESO20-155" value="&amp;lt;&amp;lt;Q&amp;gt;&amp;gt;" style="text;html=1;resizable=0;autosize=1;align=center;verticalAlign=middle;points=[];fillColor=none;strokeColor=none;rounded=0;" vertex="1" parent="CztYsGBarheONfb3hWxK-1">
          <mxGeometry x="185" y="650" width="50" height="20" as="geometry"/>
        </mxCell>
        <mxCell id="A0rY-jvUmG3pUJsESO20-156" value="&amp;lt;&amp;lt;Q&amp;gt;&amp;gt;" style="text;html=1;resizable=0;autosize=1;align=center;verticalAlign=middle;points=[];fillColor=none;strokeColor=none;rounded=0;" vertex="1" parent="CztYsGBarheONfb3hWxK-1">
          <mxGeometry x="185" y="540" width="50" height="20" as="geometry"/>
        </mxCell>
        <mxCell id="A0rY-jvUmG3pUJsESO20-157" value="&amp;lt;&amp;lt;M&amp;gt;&amp;gt;" style="text;html=1;resizable=0;autosize=1;align=center;verticalAlign=middle;points=[];fillColor=none;strokeColor=none;rounded=0;" vertex="1" parent="CztYsGBarheONfb3hWxK-1">
          <mxGeometry x="400" y="650" width="50" height="20" as="geometry"/>
        </mxCell>
        <mxCell id="ITXyS0Sbe03Rq1BltJPA-1" value="" style="group" vertex="1" connectable="0" parent="CztYsGBarheONfb3hWxK-1">
          <mxGeometry x="250" y="390" width="120" height="61" as="geometry"/>
        </mxCell>
        <mxCell id="ITXyS0Sbe03Rq1BltJPA-2" value="" style="ellipse;whiteSpace=wrap;html=1;" vertex="1" parent="ITXyS0Sbe03Rq1BltJPA-1">
          <mxGeometry width="120" height="61" as="geometry"/>
        </mxCell>
        <mxCell id="ITXyS0Sbe03Rq1BltJPA-3" value="Recieve Delivery address" style="text;html=1;strokeColor=none;fillColor=none;align=center;verticalAlign=middle;whiteSpace=wrap;rounded=0;" vertex="1" parent="ITXyS0Sbe03Rq1BltJPA-1">
          <mxGeometry x="10" y="10.5" width="100" height="40" as="geometry"/>
        </mxCell>
        <mxCell id="ITXyS0Sbe03Rq1BltJPA-5" value="&amp;lt;&amp;lt;Q&amp;gt;&amp;gt;" style="text;html=1;resizable=0;autosize=1;align=center;verticalAlign=middle;points=[];fillColor=none;strokeColor=none;rounded=0;" vertex="1" parent="CztYsGBarheONfb3hWxK-1">
          <mxGeometry x="187" y="395.13000000000005" width="50" height="20" as="geometry"/>
        </mxCell>
      </root>
    </mxGraphModel>
  </diagram>
  <diagram id="ysRRIyf24E5afC8FE9Nm" name="User">
    <mxGraphModel dx="1103" dy="1888" grid="1" gridSize="10" guides="1" tooltips="1" connect="1" arrows="1" fold="1" page="1" pageScale="1" pageWidth="827" pageHeight="1169" math="0" shadow="0">
      <root>
        <mxCell id="aIJ9fvXFByfjX0FQTHYj-0"/>
        <mxCell id="aIJ9fvXFByfjX0FQTHYj-1" parent="aIJ9fvXFByfjX0FQTHYj-0"/>
        <mxCell id="aIJ9fvXFByfjX0FQTHYj-2" value="" style="rounded=0;whiteSpace=wrap;html=1;" vertex="1" parent="aIJ9fvXFByfjX0FQTHYj-1">
          <mxGeometry x="150" y="-90" width="310" height="1100" as="geometry"/>
        </mxCell>
        <mxCell id="aIJ9fvXFByfjX0FQTHYj-3" value="" style="ellipse;whiteSpace=wrap;html=1;" vertex="1" parent="aIJ9fvXFByfjX0FQTHYj-1">
          <mxGeometry x="230" y="504.5" width="120" height="61" as="geometry"/>
        </mxCell>
        <mxCell id="aIJ9fvXFByfjX0FQTHYj-4" value="" style="ellipse;whiteSpace=wrap;html=1;" vertex="1" parent="aIJ9fvXFByfjX0FQTHYj-1">
          <mxGeometry x="230" y="420.5" width="120" height="61" as="geometry"/>
        </mxCell>
        <mxCell id="aIJ9fvXFByfjX0FQTHYj-5" value="" style="ellipse;whiteSpace=wrap;html=1;" vertex="1" parent="aIJ9fvXFByfjX0FQTHYj-1">
          <mxGeometry x="230" y="350" width="120" height="56" as="geometry"/>
        </mxCell>
        <mxCell id="aIJ9fvXFByfjX0FQTHYj-6" value="" style="ellipse;whiteSpace=wrap;html=1;" vertex="1" parent="aIJ9fvXFByfjX0FQTHYj-1">
          <mxGeometry x="230" y="199.5" width="120" height="61" as="geometry"/>
        </mxCell>
        <mxCell id="aIJ9fvXFByfjX0FQTHYj-7" style="edgeStyle=orthogonalEdgeStyle;rounded=0;orthogonalLoop=1;jettySize=auto;html=1;exitX=1;exitY=0.5;exitDx=0;exitDy=0;entryX=0;entryY=0.3333333333333333;entryDx=0;entryDy=0;entryPerimeter=0;" edge="1" parent="aIJ9fvXFByfjX0FQTHYj-1" source="aIJ9fvXFByfjX0FQTHYj-8" target="aIJ9fvXFByfjX0FQTHYj-30">
          <mxGeometry relative="1" as="geometry"/>
        </mxCell>
        <mxCell id="aIJ9fvXFByfjX0FQTHYj-8" value="" style="ellipse;whiteSpace=wrap;html=1;" vertex="1" parent="aIJ9fvXFByfjX0FQTHYj-1">
          <mxGeometry x="230" y="279.5" width="120" height="61" as="geometry"/>
        </mxCell>
        <mxCell id="aIJ9fvXFByfjX0FQTHYj-9" value="" style="ellipse;whiteSpace=wrap;html=1;" vertex="1" parent="aIJ9fvXFByfjX0FQTHYj-1">
          <mxGeometry x="230" y="117" width="120" height="61" as="geometry"/>
        </mxCell>
        <mxCell id="aIJ9fvXFByfjX0FQTHYj-10" value="" style="ellipse;whiteSpace=wrap;html=1;" vertex="1" parent="aIJ9fvXFByfjX0FQTHYj-1">
          <mxGeometry x="230" y="-40.5" width="120" height="61" as="geometry"/>
        </mxCell>
        <mxCell id="aIJ9fvXFByfjX0FQTHYj-11" value="" style="ellipse;whiteSpace=wrap;html=1;" vertex="1" parent="aIJ9fvXFByfjX0FQTHYj-1">
          <mxGeometry x="230" y="39.5" width="120" height="61" as="geometry"/>
        </mxCell>
        <mxCell id="aIJ9fvXFByfjX0FQTHYj-12" style="edgeStyle=orthogonalEdgeStyle;rounded=0;orthogonalLoop=1;jettySize=auto;html=1;exitX=1;exitY=0.3333333333333333;exitDx=0;exitDy=0;exitPerimeter=0;entryX=0;entryY=0.5;entryDx=0;entryDy=0;" edge="1" parent="aIJ9fvXFByfjX0FQTHYj-1" source="aIJ9fvXFByfjX0FQTHYj-24" target="aIJ9fvXFByfjX0FQTHYj-10">
          <mxGeometry relative="1" as="geometry"/>
        </mxCell>
        <mxCell id="aIJ9fvXFByfjX0FQTHYj-13" style="edgeStyle=orthogonalEdgeStyle;rounded=0;orthogonalLoop=1;jettySize=auto;html=1;exitX=1;exitY=0.3333333333333333;exitDx=0;exitDy=0;exitPerimeter=0;entryX=0;entryY=0.5;entryDx=0;entryDy=0;" edge="1" parent="aIJ9fvXFByfjX0FQTHYj-1" source="aIJ9fvXFByfjX0FQTHYj-24" target="aIJ9fvXFByfjX0FQTHYj-11">
          <mxGeometry relative="1" as="geometry"/>
        </mxCell>
        <mxCell id="aIJ9fvXFByfjX0FQTHYj-14" style="edgeStyle=orthogonalEdgeStyle;rounded=0;orthogonalLoop=1;jettySize=auto;html=1;exitX=1;exitY=0.3333333333333333;exitDx=0;exitDy=0;exitPerimeter=0;entryX=0;entryY=0.5;entryDx=0;entryDy=0;" edge="1" parent="aIJ9fvXFByfjX0FQTHYj-1" source="aIJ9fvXFByfjX0FQTHYj-24" target="aIJ9fvXFByfjX0FQTHYj-9">
          <mxGeometry relative="1" as="geometry"/>
        </mxCell>
        <mxCell id="aIJ9fvXFByfjX0FQTHYj-15" style="edgeStyle=orthogonalEdgeStyle;rounded=0;orthogonalLoop=1;jettySize=auto;html=1;exitX=1;exitY=0.3333333333333333;exitDx=0;exitDy=0;exitPerimeter=0;entryX=0;entryY=0.5;entryDx=0;entryDy=0;" edge="1" parent="aIJ9fvXFByfjX0FQTHYj-1" source="aIJ9fvXFByfjX0FQTHYj-24" target="aIJ9fvXFByfjX0FQTHYj-6">
          <mxGeometry relative="1" as="geometry"/>
        </mxCell>
        <mxCell id="aIJ9fvXFByfjX0FQTHYj-16" style="edgeStyle=orthogonalEdgeStyle;rounded=0;orthogonalLoop=1;jettySize=auto;html=1;exitX=1;exitY=0.3333333333333333;exitDx=0;exitDy=0;exitPerimeter=0;entryX=0;entryY=0.5;entryDx=0;entryDy=0;" edge="1" parent="aIJ9fvXFByfjX0FQTHYj-1" source="aIJ9fvXFByfjX0FQTHYj-24" target="aIJ9fvXFByfjX0FQTHYj-8">
          <mxGeometry relative="1" as="geometry"/>
        </mxCell>
        <mxCell id="aIJ9fvXFByfjX0FQTHYj-17" style="edgeStyle=orthogonalEdgeStyle;rounded=0;orthogonalLoop=1;jettySize=auto;html=1;exitX=1;exitY=0.3333333333333333;exitDx=0;exitDy=0;exitPerimeter=0;entryX=0;entryY=0.5;entryDx=0;entryDy=0;" edge="1" parent="aIJ9fvXFByfjX0FQTHYj-1" source="aIJ9fvXFByfjX0FQTHYj-24" target="aIJ9fvXFByfjX0FQTHYj-3">
          <mxGeometry relative="1" as="geometry"/>
        </mxCell>
        <mxCell id="aIJ9fvXFByfjX0FQTHYj-18" style="edgeStyle=orthogonalEdgeStyle;rounded=0;orthogonalLoop=1;jettySize=auto;html=1;exitX=1;exitY=0.3333333333333333;exitDx=0;exitDy=0;exitPerimeter=0;entryX=0;entryY=0.5;entryDx=0;entryDy=0;" edge="1" parent="aIJ9fvXFByfjX0FQTHYj-1" source="aIJ9fvXFByfjX0FQTHYj-24" target="aIJ9fvXFByfjX0FQTHYj-5">
          <mxGeometry relative="1" as="geometry"/>
        </mxCell>
        <mxCell id="aIJ9fvXFByfjX0FQTHYj-19" style="edgeStyle=orthogonalEdgeStyle;rounded=0;orthogonalLoop=1;jettySize=auto;html=1;exitX=1;exitY=0.3333333333333333;exitDx=0;exitDy=0;exitPerimeter=0;entryX=0;entryY=0.5;entryDx=0;entryDy=0;" edge="1" parent="aIJ9fvXFByfjX0FQTHYj-1" source="aIJ9fvXFByfjX0FQTHYj-24" target="aIJ9fvXFByfjX0FQTHYj-4">
          <mxGeometry relative="1" as="geometry"/>
        </mxCell>
        <mxCell id="aIJ9fvXFByfjX0FQTHYj-20" style="edgeStyle=orthogonalEdgeStyle;rounded=0;orthogonalLoop=1;jettySize=auto;html=1;exitX=1;exitY=0.3333333333333333;exitDx=0;exitDy=0;exitPerimeter=0;entryX=0;entryY=0.5;entryDx=0;entryDy=0;" edge="1" parent="aIJ9fvXFByfjX0FQTHYj-1" source="aIJ9fvXFByfjX0FQTHYj-24" target="aIJ9fvXFByfjX0FQTHYj-37">
          <mxGeometry relative="1" as="geometry"/>
        </mxCell>
        <mxCell id="aIJ9fvXFByfjX0FQTHYj-21" style="edgeStyle=orthogonalEdgeStyle;rounded=0;orthogonalLoop=1;jettySize=auto;html=1;exitX=1;exitY=0.3333333333333333;exitDx=0;exitDy=0;exitPerimeter=0;entryX=0;entryY=0.5;entryDx=0;entryDy=0;" edge="1" parent="aIJ9fvXFByfjX0FQTHYj-1" source="aIJ9fvXFByfjX0FQTHYj-24" target="aIJ9fvXFByfjX0FQTHYj-40">
          <mxGeometry relative="1" as="geometry"/>
        </mxCell>
        <mxCell id="aIJ9fvXFByfjX0FQTHYj-22" style="edgeStyle=orthogonalEdgeStyle;rounded=0;orthogonalLoop=1;jettySize=auto;html=1;exitX=1;exitY=0.3333333333333333;exitDx=0;exitDy=0;exitPerimeter=0;entryX=0;entryY=0.5;entryDx=0;entryDy=0;" edge="1" parent="aIJ9fvXFByfjX0FQTHYj-1" source="aIJ9fvXFByfjX0FQTHYj-24" target="aIJ9fvXFByfjX0FQTHYj-43">
          <mxGeometry relative="1" as="geometry"/>
        </mxCell>
        <mxCell id="aIJ9fvXFByfjX0FQTHYj-23" style="edgeStyle=orthogonalEdgeStyle;rounded=0;orthogonalLoop=1;jettySize=auto;html=1;exitX=1;exitY=0.3333333333333333;exitDx=0;exitDy=0;exitPerimeter=0;entryX=0;entryY=0.5;entryDx=0;entryDy=0;" edge="1" parent="aIJ9fvXFByfjX0FQTHYj-1" source="aIJ9fvXFByfjX0FQTHYj-24" target="aIJ9fvXFByfjX0FQTHYj-46">
          <mxGeometry relative="1" as="geometry"/>
        </mxCell>
        <mxCell id="aIJ9fvXFByfjX0FQTHYj-67" style="edgeStyle=orthogonalEdgeStyle;rounded=0;orthogonalLoop=1;jettySize=auto;html=1;exitX=1;exitY=0.3333333333333333;exitDx=0;exitDy=0;exitPerimeter=0;entryX=0;entryY=0.5;entryDx=0;entryDy=0;" edge="1" parent="aIJ9fvXFByfjX0FQTHYj-1" source="aIJ9fvXFByfjX0FQTHYj-24" target="aIJ9fvXFByfjX0FQTHYj-63">
          <mxGeometry relative="1" as="geometry"/>
        </mxCell>
        <object label="User" id="aIJ9fvXFByfjX0FQTHYj-24">
          <mxCell style="shape=umlActor;verticalLabelPosition=bottom;labelBackgroundColor=#ffffff;verticalAlign=top;html=1;" vertex="1" parent="aIJ9fvXFByfjX0FQTHYj-1">
            <mxGeometry x="70" y="420.50000000000006" width="40" height="90" as="geometry"/>
          </mxCell>
        </object>
        <mxCell id="aIJ9fvXFByfjX0FQTHYj-25" value="login" style="text;html=1;strokeColor=none;fillColor=none;align=center;verticalAlign=middle;whiteSpace=wrap;rounded=0;" vertex="1" parent="aIJ9fvXFByfjX0FQTHYj-1">
          <mxGeometry x="240" y="50" width="100" height="40" as="geometry"/>
        </mxCell>
        <mxCell id="aIJ9fvXFByfjX0FQTHYj-26" value="view &lt;br&gt;cart&amp;nbsp;" style="text;html=1;strokeColor=none;fillColor=none;align=center;verticalAlign=middle;whiteSpace=wrap;rounded=0;" vertex="1" parent="aIJ9fvXFByfjX0FQTHYj-1">
          <mxGeometry x="240" y="210" width="100" height="40" as="geometry"/>
        </mxCell>
        <mxCell id="aIJ9fvXFByfjX0FQTHYj-27" value="select &lt;br&gt;product(s)&amp;nbsp;" style="text;html=1;strokeColor=none;fillColor=none;align=center;verticalAlign=middle;whiteSpace=wrap;rounded=0;" vertex="1" parent="aIJ9fvXFByfjX0FQTHYj-1">
          <mxGeometry x="240" y="127.5" width="100" height="40" as="geometry"/>
        </mxCell>
        <mxCell id="aIJ9fvXFByfjX0FQTHYj-28" value="pay&amp;nbsp; for product(s) to admin" style="text;html=1;strokeColor=none;fillColor=none;align=center;verticalAlign=middle;whiteSpace=wrap;rounded=0;" vertex="1" parent="aIJ9fvXFByfjX0FQTHYj-1">
          <mxGeometry x="240" y="290" width="100" height="40" as="geometry"/>
        </mxCell>
        <mxCell id="aIJ9fvXFByfjX0FQTHYj-29" style="edgeStyle=orthogonalEdgeStyle;rounded=0;orthogonalLoop=1;jettySize=auto;html=1;exitX=0;exitY=0.3333333333333333;exitDx=0;exitDy=0;exitPerimeter=0;entryX=1;entryY=0.5;entryDx=0;entryDy=0;" edge="1" parent="aIJ9fvXFByfjX0FQTHYj-1" source="aIJ9fvXFByfjX0FQTHYj-30" target="aIJ9fvXFByfjX0FQTHYj-5">
          <mxGeometry relative="1" as="geometry"/>
        </mxCell>
        <object label="Payment service" id="aIJ9fvXFByfjX0FQTHYj-30">
          <mxCell style="shape=umlActor;verticalLabelPosition=bottom;labelBackgroundColor=#ffffff;verticalAlign=top;html=1;" vertex="1" parent="aIJ9fvXFByfjX0FQTHYj-1">
            <mxGeometry x="530" y="279.5" width="40" height="90" as="geometry"/>
          </mxCell>
        </object>
        <mxCell id="aIJ9fvXFByfjX0FQTHYj-31" value="&lt;div&gt;&lt;span style=&quot;font-size: 12px&quot;&gt;Recieve Payment from admin (cancelled order )&lt;/span&gt;&lt;/div&gt;" style="text;html=1;strokeColor=none;fillColor=none;align=center;verticalAlign=middle;whiteSpace=wrap;rounded=0;" vertex="1" parent="aIJ9fvXFByfjX0FQTHYj-1">
          <mxGeometry x="240" y="357.5" width="100" height="40" as="geometry"/>
        </mxCell>
        <mxCell id="aIJ9fvXFByfjX0FQTHYj-32" value="cancel order" style="text;html=1;strokeColor=none;fillColor=none;align=center;verticalAlign=middle;whiteSpace=wrap;rounded=0;" vertex="1" parent="aIJ9fvXFByfjX0FQTHYj-1">
          <mxGeometry x="240" y="432.5" width="100" height="40" as="geometry"/>
        </mxCell>
        <mxCell id="aIJ9fvXFByfjX0FQTHYj-33" value="System" style="text;html=1;strokeColor=none;fillColor=none;align=center;verticalAlign=middle;whiteSpace=wrap;rounded=0;" vertex="1" parent="aIJ9fvXFByfjX0FQTHYj-1">
          <mxGeometry x="260" y="-80" width="40" height="20" as="geometry"/>
        </mxCell>
        <mxCell id="aIJ9fvXFByfjX0FQTHYj-34" value="Feedback" style="text;html=1;strokeColor=none;fillColor=none;align=center;verticalAlign=middle;whiteSpace=wrap;rounded=0;" vertex="1" parent="aIJ9fvXFByfjX0FQTHYj-1">
          <mxGeometry x="240" y="515" width="100" height="40" as="geometry"/>
        </mxCell>
        <mxCell id="aIJ9fvXFByfjX0FQTHYj-35" value="register" style="text;html=1;strokeColor=none;fillColor=none;align=center;verticalAlign=middle;whiteSpace=wrap;rounded=0;" vertex="1" parent="aIJ9fvXFByfjX0FQTHYj-1">
          <mxGeometry x="240" y="-30" width="100" height="40" as="geometry"/>
        </mxCell>
        <mxCell id="aIJ9fvXFByfjX0FQTHYj-36" value="" style="group" vertex="1" connectable="0" parent="aIJ9fvXFByfjX0FQTHYj-1">
          <mxGeometry x="230" y="580" width="120" height="61" as="geometry"/>
        </mxCell>
        <mxCell id="aIJ9fvXFByfjX0FQTHYj-37" value="" style="ellipse;whiteSpace=wrap;html=1;" vertex="1" parent="aIJ9fvXFByfjX0FQTHYj-36">
          <mxGeometry width="120" height="61" as="geometry"/>
        </mxCell>
        <mxCell id="aIJ9fvXFByfjX0FQTHYj-38" value="View&lt;br&gt;product(s)&amp;nbsp;" style="text;html=1;strokeColor=none;fillColor=none;align=center;verticalAlign=middle;whiteSpace=wrap;rounded=0;" vertex="1" parent="aIJ9fvXFByfjX0FQTHYj-36">
          <mxGeometry x="10" y="10.5" width="100" height="40" as="geometry"/>
        </mxCell>
        <mxCell id="aIJ9fvXFByfjX0FQTHYj-39" value="" style="group" vertex="1" connectable="0" parent="aIJ9fvXFByfjX0FQTHYj-1">
          <mxGeometry x="230" y="660" width="120" height="61" as="geometry"/>
        </mxCell>
        <mxCell id="aIJ9fvXFByfjX0FQTHYj-40" value="" style="ellipse;whiteSpace=wrap;html=1;" vertex="1" parent="aIJ9fvXFByfjX0FQTHYj-39">
          <mxGeometry width="120" height="61" as="geometry"/>
        </mxCell>
        <mxCell id="aIJ9fvXFByfjX0FQTHYj-41" value="Edit cart&amp;nbsp;" style="text;html=1;strokeColor=none;fillColor=none;align=center;verticalAlign=middle;whiteSpace=wrap;rounded=0;" vertex="1" parent="aIJ9fvXFByfjX0FQTHYj-39">
          <mxGeometry x="10" y="10.5" width="100" height="40" as="geometry"/>
        </mxCell>
        <mxCell id="aIJ9fvXFByfjX0FQTHYj-42" value="" style="group" vertex="1" connectable="0" parent="aIJ9fvXFByfjX0FQTHYj-1">
          <mxGeometry x="230" y="750" width="120" height="61" as="geometry"/>
        </mxCell>
        <mxCell id="aIJ9fvXFByfjX0FQTHYj-43" value="" style="ellipse;whiteSpace=wrap;html=1;" vertex="1" parent="aIJ9fvXFByfjX0FQTHYj-42">
          <mxGeometry width="120" height="61" as="geometry"/>
        </mxCell>
        <mxCell id="aIJ9fvXFByfjX0FQTHYj-44" value="Check status of product delivery" style="text;html=1;strokeColor=none;fillColor=none;align=center;verticalAlign=middle;whiteSpace=wrap;rounded=0;" vertex="1" parent="aIJ9fvXFByfjX0FQTHYj-42">
          <mxGeometry x="10" y="10.5" width="100" height="40" as="geometry"/>
        </mxCell>
        <mxCell id="aIJ9fvXFByfjX0FQTHYj-45" value="" style="group" vertex="1" connectable="0" parent="aIJ9fvXFByfjX0FQTHYj-1">
          <mxGeometry x="230" y="830" width="120" height="61" as="geometry"/>
        </mxCell>
        <mxCell id="aIJ9fvXFByfjX0FQTHYj-46" value="" style="ellipse;whiteSpace=wrap;html=1;" vertex="1" parent="aIJ9fvXFByfjX0FQTHYj-45">
          <mxGeometry width="120" height="61" as="geometry"/>
        </mxCell>
        <mxCell id="aIJ9fvXFByfjX0FQTHYj-47" value="Add Products to cart&amp;nbsp;" style="text;html=1;strokeColor=none;fillColor=none;align=center;verticalAlign=middle;whiteSpace=wrap;rounded=0;" vertex="1" parent="aIJ9fvXFByfjX0FQTHYj-45">
          <mxGeometry x="10" y="10.5" width="100" height="40" as="geometry"/>
        </mxCell>
        <mxCell id="aIJ9fvXFByfjX0FQTHYj-48" value="&amp;lt;&amp;lt;M&amp;gt;&amp;gt;" style="text;html=1;resizable=0;autosize=1;align=center;verticalAlign=middle;points=[];fillColor=none;strokeColor=none;rounded=0;" vertex="1" parent="aIJ9fvXFByfjX0FQTHYj-1">
          <mxGeometry x="170" y="-30.000000000000018" width="50" height="20" as="geometry"/>
        </mxCell>
        <mxCell id="aIJ9fvXFByfjX0FQTHYj-49" value="&amp;lt;&amp;lt;Q&amp;gt;&amp;gt;" style="text;html=1;resizable=0;autosize=1;align=center;verticalAlign=middle;points=[];fillColor=none;strokeColor=none;rounded=0;" vertex="1" parent="aIJ9fvXFByfjX0FQTHYj-1">
          <mxGeometry x="170" y="49.999999999999986" width="50" height="20" as="geometry"/>
        </mxCell>
        <mxCell id="aIJ9fvXFByfjX0FQTHYj-50" value="&amp;lt;&amp;lt;M&amp;gt;&amp;gt;" style="text;html=1;resizable=0;autosize=1;align=center;verticalAlign=middle;points=[];fillColor=none;strokeColor=none;rounded=0;" vertex="1" parent="aIJ9fvXFByfjX0FQTHYj-1">
          <mxGeometry x="170" y="292.07" width="50" height="20" as="geometry"/>
        </mxCell>
        <mxCell id="aIJ9fvXFByfjX0FQTHYj-51" value="&amp;lt;&amp;lt;Q&amp;gt;&amp;gt;" style="text;html=1;resizable=0;autosize=1;align=center;verticalAlign=middle;points=[];fillColor=none;strokeColor=none;rounded=0;" vertex="1" parent="aIJ9fvXFByfjX0FQTHYj-1">
          <mxGeometry x="170" y="209.99999999999997" width="50" height="20" as="geometry"/>
        </mxCell>
        <mxCell id="aIJ9fvXFByfjX0FQTHYj-52" value="&amp;lt;&amp;lt;Q&amp;gt;&amp;gt;" style="text;html=1;resizable=0;autosize=1;align=center;verticalAlign=middle;points=[];fillColor=none;strokeColor=none;rounded=0;" vertex="1" parent="aIJ9fvXFByfjX0FQTHYj-1">
          <mxGeometry x="170" y="127.49999999999999" width="50" height="20" as="geometry"/>
        </mxCell>
        <mxCell id="aIJ9fvXFByfjX0FQTHYj-53" value="&amp;lt;&amp;lt;M&amp;gt;&amp;gt;" style="text;html=1;resizable=0;autosize=1;align=center;verticalAlign=middle;points=[];fillColor=none;strokeColor=none;rounded=0;" vertex="1" parent="aIJ9fvXFByfjX0FQTHYj-1">
          <mxGeometry x="170" y="515" width="50" height="20" as="geometry"/>
        </mxCell>
        <mxCell id="aIJ9fvXFByfjX0FQTHYj-54" value="&amp;lt;&amp;lt;M&amp;gt;&amp;gt;" style="text;html=1;resizable=0;autosize=1;align=center;verticalAlign=middle;points=[];fillColor=none;strokeColor=none;rounded=0;" vertex="1" parent="aIJ9fvXFByfjX0FQTHYj-1">
          <mxGeometry x="170" y="431.03" width="50" height="20" as="geometry"/>
        </mxCell>
        <mxCell id="aIJ9fvXFByfjX0FQTHYj-55" value="&amp;lt;&amp;lt;M&amp;gt;&amp;gt;" style="text;html=1;resizable=0;autosize=1;align=center;verticalAlign=middle;points=[];fillColor=none;strokeColor=none;rounded=0;" vertex="1" parent="aIJ9fvXFByfjX0FQTHYj-1">
          <mxGeometry x="170" y="357.5" width="50" height="20" as="geometry"/>
        </mxCell>
        <mxCell id="aIJ9fvXFByfjX0FQTHYj-56" value="&amp;lt;&amp;lt;M&amp;gt;&amp;gt;" style="text;html=1;resizable=0;autosize=1;align=center;verticalAlign=middle;points=[];fillColor=none;strokeColor=none;rounded=0;" vertex="1" parent="aIJ9fvXFByfjX0FQTHYj-1">
          <mxGeometry x="170" y="670" width="50" height="20" as="geometry"/>
        </mxCell>
        <mxCell id="aIJ9fvXFByfjX0FQTHYj-57" value="&amp;lt;&amp;lt;Q&amp;gt;&amp;gt;" style="text;html=1;resizable=0;autosize=1;align=center;verticalAlign=middle;points=[];fillColor=none;strokeColor=none;rounded=0;" vertex="1" parent="aIJ9fvXFByfjX0FQTHYj-1">
          <mxGeometry x="170" y="760" width="50" height="20" as="geometry"/>
        </mxCell>
        <mxCell id="aIJ9fvXFByfjX0FQTHYj-58" value="&amp;lt;&amp;lt;M&amp;gt;&amp;gt;" style="text;html=1;resizable=0;autosize=1;align=center;verticalAlign=middle;points=[];fillColor=none;strokeColor=none;rounded=0;" vertex="1" parent="aIJ9fvXFByfjX0FQTHYj-1">
          <mxGeometry x="170" y="840" width="50" height="20" as="geometry"/>
        </mxCell>
        <mxCell id="aIJ9fvXFByfjX0FQTHYj-59" value="&amp;lt;&amp;lt;Q&amp;gt;&amp;gt;" style="text;html=1;resizable=0;autosize=1;align=center;verticalAlign=middle;points=[];fillColor=none;strokeColor=none;rounded=0;" vertex="1" parent="aIJ9fvXFByfjX0FQTHYj-1">
          <mxGeometry x="170" y="590" width="50" height="20" as="geometry"/>
        </mxCell>
        <mxCell id="aIJ9fvXFByfjX0FQTHYj-60" value="&amp;lt;&amp;lt;M&amp;gt;&amp;gt;" style="text;html=1;resizable=0;autosize=1;align=center;verticalAlign=middle;points=[];fillColor=none;strokeColor=none;rounded=0;" vertex="1" parent="aIJ9fvXFByfjX0FQTHYj-1">
          <mxGeometry x="350" y="290" width="50" height="20" as="geometry"/>
        </mxCell>
        <mxCell id="aIJ9fvXFByfjX0FQTHYj-61" value="&amp;lt;&amp;lt;M&amp;gt;&amp;gt;" style="text;html=1;resizable=0;autosize=1;align=center;verticalAlign=middle;points=[];fillColor=none;strokeColor=none;rounded=0;" vertex="1" parent="aIJ9fvXFByfjX0FQTHYj-1">
          <mxGeometry x="350" y="357.5" width="50" height="20" as="geometry"/>
        </mxCell>
        <mxCell id="aIJ9fvXFByfjX0FQTHYj-62" value="" style="group" vertex="1" connectable="0" parent="aIJ9fvXFByfjX0FQTHYj-1">
          <mxGeometry x="230" y="909" width="120" height="61" as="geometry"/>
        </mxCell>
        <mxCell id="aIJ9fvXFByfjX0FQTHYj-63" value="" style="ellipse;whiteSpace=wrap;html=1;" vertex="1" parent="aIJ9fvXFByfjX0FQTHYj-62">
          <mxGeometry width="120" height="61" as="geometry"/>
        </mxCell>
        <mxCell id="aIJ9fvXFByfjX0FQTHYj-64" value="Place order" style="text;html=1;strokeColor=none;fillColor=none;align=center;verticalAlign=middle;whiteSpace=wrap;rounded=0;" vertex="1" parent="aIJ9fvXFByfjX0FQTHYj-62">
          <mxGeometry x="10" y="10.5" width="100" height="40" as="geometry"/>
        </mxCell>
      </root>
    </mxGraphModel>
  </diagram>
</mxfile>
